<?xml version="1.0" encoding="UTF-8"?><svg id="_レイヤー_2" xmlns="http://www.w3.org/2000/svg" viewBox="0 0 253.27 185.13"><defs><style>.cls-1{fill:#9b7863;}</style></defs><g id="_デザイン"><path class="cls-1" d="m198.02,112.39c6.92,14.17,9.02,10.3,14.38,22.15,2.33,3.7,1.32,37.32-1.44,40.25-2.28,2.42-5.57,4.91-5.93,9.79-.08,1.06,6.94.23,15.02.46,1.18.03,2.43-9.88,5.21-18.21,2.78-8.33.16-14.2.65-21.22.49-7.02-.2-8.24,4.11-19.76,4.23-11.31,1.44-12.73,1.93-18.6s11.16-17.66,11.16-33.89-3.66-20.53-3.66-20.53c0,0,5.72,13.9,5.49,28.07-.23,14.17-2.74,16.91-1.37,28.56,1.37,11.65,4.57,22.39,2.74,32.22-1.83,9.82-5.94,21.71-4.8,23.3,1.14,1.6,7.08-.69,7.08-.69,0,0,6.63-12.11,4.11-31.07-2.51-18.96-2.28-20.56-2.74-31.07-.46-10.51.75-34.88-1.76-44.7-2.51-9.82-10.36-18.83-21.97-27.2-19.57-14.1-39.99-11.32-54.55-8.02-11.33,2.57-88.66,6.77-93.87,2.46-5.21-4.31,1.2-9.92,0-12.32s-23.23-2.8-28.04-4.81C44.96,5.55,24.53-2.46,21.33.75s13.22,10.01,11.62,12.42S5.71,37.6,2.9,40.8c-2.8,3.2-4.81,9.61,0,13.22s17.22,6.41,24.43,6.01,17.22-3.13,20.43.04c3.2,3.17,9.61,19.99,16.02,28.8,6.41,8.81,19.63,14.02,20.03,18.83.4,4.81,4.41,20.03,3.2,23.23-1.2,3.2-2.4,9.61-2,14.02.4,4.41,4.89,13.65.4,25.24-4.37,11.29-4.4,11.55-4.41,11.62,0,0,.99,2.88,4.99.88.58,2.02,8.22,1.56,13.53-.16,6.79-44.61,18.13-46.57,10.86-68.13,0,0,18.68,9.74,39.11,6.53s39.67-11.56,42.62-10.76l5.89,2.23Z"/></g></svg>