<?xml version="1.0" encoding="UTF-8"?><svg id="_レイヤー_2" xmlns="http://www.w3.org/2000/svg" viewBox="0 0 109.03 68.22"><defs><style>.cls-1{fill:none;stroke:#9b7863;stroke-linecap:round;stroke-linejoin:round;stroke-width:.99px;}</style></defs><g id="_デザイン"><g><path class="cls-1" d="m105.17,53.11c0,1.43,1.39,2.65,3.37,3.18v7.98c0,1.97-1.65,3.55-3.62,3.45l-61.94-3.11c-.22-.42-.52-.82-.89-1.19-1.47-1.47-3.53-1.81-4.59-.75-.42.42-.62,1-.62,1.63l-33.1-1.66c-1.84-.09-3.28-1.61-3.28-3.45v-18.85c2.18-.47,3.75-1.76,3.75-3.27s-1.57-2.8-3.75-3.27v-7.61c0-1.53,1.01-2.88,2.48-3.31l24.71-7.23c1.25.93,3.22,1.53,5.43,1.53,3.78,0,6.84-1.74,6.84-3.89,0-.4-.1-.78-.3-1.14L78.96.63c1.24-.36,2.58,0,3.47.94l3.94,4.14c-.68.6-1.07,1.32-1.07,2.09,0,2.13,3.02,3.87,6.76,3.89l15.53,16.34c.61.64.95,1.49.95,2.38v19.53c-1.98.53-3.37,1.75-3.37,3.18Z"/><path class="cls-1" d="m67.32,12.7c-.05,1.18-2.13,2.06-4.65,1.95s-4.52-1.16-4.47-2.34c.05-1.18,2.13-2.06,4.65-1.95,2.52.11,4.52,1.16,4.47,2.34Z"/><path class="cls-1" d="m86.66,18.63c.55,1.46-1.09,3.42-3.64,4.38-2.56.96-5.08.56-5.62-.9-.55-1.46,1.09-3.42,3.64-4.38,2.56-.96,5.08-.56,5.62.9Z"/><path class="cls-1" d="m19.85,33.47c-1.06,1.06-3.11.73-4.59-.75s-1.81-3.53-.75-4.59c1.06-1.06,3.11-.73,4.59.75s1.81,3.53.75,4.59Z"/><path class="cls-1" d="m44.82,26.89c-.23.82-.82,1.69-1.68,2.41-1.63,1.35-3.63,1.63-4.47.62-.66-.79-.41-2.14.51-3.34,0,0,.52-.44,1.33-.82,1.07-.51,2.4-.89,3.48-.6,2.27.61.84,1.73.84,1.73Z"/><path class="cls-1" d="m23.31,48.9c1.06,2.01-.28,4.8-3,6.24-2.72,1.44-5.79.98-6.85-1.03s.28-4.8,3-6.24c2.72-1.44,5.79-.98,6.85,1.03Z"/><path class="cls-1" d="m74.98,55.31c.98,1.7.57,3.79-.94,4.66-1.5.87-3.52.19-4.5-1.52-.98-1.7-.57-3.79.94-4.66,1.5-.87,3.52-.19,4.5,1.52Z"/><path class="cls-1" d="m91.91,43.28c-1.2,1.76-4.47,1.63-7.31-.3-2.84-1.93-4.17-4.92-2.97-6.68,1.2-1.76,4.47-1.63,7.31.3,2.84,1.93,4.17,4.92,2.97,6.68Z"/><path class="cls-1" d="m57.33,43.63c.17,1.69-2.47,3.34-5.91,3.69-3.44.35-6.37-.73-6.54-2.41-.17-1.69,2.47-3.34,5.91-3.69,3.44-.35,6.37.73,6.54,2.41Z"/><line class="cls-1" x1="102.83" y1="30.07" x2="44.82" y2="26.89"/><line class="cls-1" x1="39.17" y1="26.58" x2="7.91" y2="24.87"/></g></g></svg>