<?xml version="1.0" encoding="UTF-8"?><svg id="_レイヤー_2" xmlns="http://www.w3.org/2000/svg" viewBox="0 0 215.56 119.01"><defs><style>.cls-1{fill:#9b7863;}.cls-1,.cls-2{stroke:#9b7863;stroke-miterlimit:10;}.cls-2{fill:none;}</style></defs><g id="_デザイン"><g><path class="cls-2" d="m178.05,14.2c0-7.14-31-12.92-69.23-12.92-19.12,0-36.43,1.45-48.96,3.78-12.53,2.34-20.28,5.57-20.28,9.14-.22,2.29-.34,4.65-.34,7.05,0,18.43,3,37.1,11.88,51.78,2.27,3.76,4.93,7.25,8.02,10.41,10.7,10.95,26.59,17.9,49.68,17.9s39.25-6.81,49.88-17.57c3.12-3.15,5.78-6.64,8.05-10.41,8.87-14.73,11.65-33.56,11.65-52.12,0-2.41-.12-4.76-.34-7.05Zm-126.28,7.05c11.39,3.71,32.67,6.2,57.05,6.2s45.64-2.49,57.03-6.2"/><path class="cls-2" d="m215.06,93.92c0,13.58-48.03,24.59-107.28,24.59S.5,107.5.5,93.92c0-8.81,20.22-16.54,50.62-20.88,2.27,3.76,4.93,7.25,8.02,10.41,10.7,10.95,26.59,17.9,49.68,17.9s39.25-6.81,49.88-17.57c3.12-3.15,5.78-6.64,8.05-10.41,29.11,4.4,48.32,11.96,48.32,20.54Z"/><path class="cls-2" d="m212.75,91.63c5.6,11.88-47,23.77-104.96,23.77S-1.08,104.17,2.81,91.63"/><path class="cls-2" d="m183.7,93.43c0,5.9-22.92,10.88-54.34,12.47"/><path class="cls-2" d="m47.56,101.35c-9.85-2.19-15.7-4.94-15.7-7.92,0-4.01,10.61-7.6,27.28-9.98,10.7,10.95,26.59,17.9,49.68,17.9s39.25-6.81,49.88-17.57"/><path class="cls-2" d="m161.82,5.88s5.27-6.49,14.08-5.22c9.17,1.32,13.26,12.02,13.26,23.32,0,17.27-10.77,41.31-21.31,47.47"/><g><path class="cls-2" d="m42.96,15.03c0,2.27,3.21,4.38,8.81,6.21,11.39,3.71,32.67,6.2,57.05,6.2s45.64-2.49,57.03-6.2c5.61-1.83,8.82-3.95,8.82-6.21"/><path class="cls-1" d="m165.86,21.24h0c-11.39,3.71-32.67,6.2-57.03,6.2s-45.66-2.49-57.05-6.2h0s30.81-7.05,56.48-7.05,57.61,7.04,57.61,7.04Z"/></g><path class="cls-2" d="m178.39,19s1.23,3.99,1.22,8.44c-.02,6.11-2.56,14.58-2.56,14.58"/></g></g></svg>