<?xml version="1.0" encoding="UTF-8"?><svg id="_レイヤー_2" xmlns="http://www.w3.org/2000/svg" viewBox="0 0 153.19 193.18"><defs><style>.cls-1{fill:#9b7863;}</style></defs><g id="_デザイン"><path class="cls-1" d="m132.42,104.93c1.55,10.24,5.23,29.68,5.23,52.93,0,32.53-4.15,35.33-9.31,35.33s-9.35-2.79-9.35-35.33c0-23.25,3.61-42.72,5.23-52.93,4.7-36.11,1.17-41.72-3.09-43.09-10.23-3.33-17.68-13.67-17.68-26.63C103.45,19.34,114.3,0,128.04,0s25.15,19.34,25.15,35.2c0,12.97-7.44,23.3-17.67,26.63-3.52.73-7.8,6.95-3.1,43.09Z"/><path class="cls-1" d="m22.25,97.53c.24,15.54,3.74,37.07,3.74,60.32,0,32.53-4.15,35.33-9.31,35.33s-9.35-2.79-9.35-35.33c0-23.25,5.06-38.25,6.63-56.8.57-6.81-3.09-6.03-7.35-7.4C-1.63,88.91-.88,85.58,1.97,53.86,3.3,39.12,11.37,0,18.69,0c3.35,0,4.39,36.49,4.39,52.35,0,12.97-.24,10.32-.83,45.18Z"/><path class="cls-1" d="m87.95,33.67c0,.79,0,1.54-.01,2.24v.07c-.03,2.44-.1,4.42-.2,6.03,0,.05,0,.08,0,.12-.17,1.92-.45,3.72-.86,5.39,0,.01,0,.03-.01.04-1.69,7.08-5.54,11.95-12.62,14.26-3.52.73-7.81,6.95-3.1,43.09,1.55,10.24,5.23,29.68,5.23,52.93,0,32.53-4.15,35.33-9.31,35.33s-9.35-2.8-9.35-35.33c0-23.25,3.61-42.72,5.23-52.93,4.7-36.12,1.17-41.72-3.09-43.09-7.38-2.41-11.08-7.58-12.56-15.14-.22-1.13-.39-2.32-.52-3.55,0-.02,0-.05,0-.07-.15-1.77-.24-4.07-.28-7.06,0-.74-.01-1.52-.01-2.34,0-14.15,1.21-33.67,2.71-33.67,1.28,0,2.36,14.25,2.64,27.23h.07v.48c0,18.07,1.47,19.47,3.3,19.47s3.27-1.38,3.3-18.98c.02,0,.03.01.06.01.25-13.23,1.34-28.21,2.65-28.21s2.45,15.7,2.67,29.15h.04c.07,16.7,1.52,18.03,3.3,18.03s3.2-1.31,3.29-17.74h.04c.2-13.51,1.33-29.44,2.67-29.44s2.44,15.4,2.67,28.76c.02,0,.03,0,.05,0,.05,17.08,1.51,18.42,3.29,18.42s3.3-1.4,3.3-19.47v-.37s.05-.01.07-.01c.28-13,1.35-27.32,2.63-27.32,1.5,0,2.71,19.52,2.71,33.67Z"/></g></svg>