<?xml version="1.0" encoding="UTF-8" standalone="no"?>
<!DOCTYPE svg PUBLIC "-//W3C//DTD SVG 1.1//EN" "http://www.w3.org/Graphics/SVG/1.1/DTD/svg11.dtd">
<svg width="100%" height="100%" viewBox="0 0 217 315" version="1.1" xmlns="http://www.w3.org/2000/svg" xmlns:xlink="http://www.w3.org/1999/xlink" xml:space="preserve" xmlns:serif="http://www.serif.com/" style="fill-rule:evenodd;clip-rule:evenodd;stroke-linejoin:round;stroke-miterlimit:2;">
    <g id="frames" transform="matrix(6.12323e-17,1,-1,6.12323e-17,216.98,0)">
        <g>
            <path d="M38.18,10.06L276.29,10.06" style="fill:none;fill-rule:nonzero;"/>
            <g>
                <g>
                    <path d="M25.77,25.4L24.61,24.24L26.42,24.24L26.42,26.31L24.36,26.31L24.36,24.5L25.52,25.66L25.77,25.4Z" style="fill:rgb(122,91,55);fill-rule:nonzero;"/>
                    <path d="M24.61,24.24L25.77,25.4L25.52,25.66L24.36,24.5L24.36,24.24L24.61,24.24Z" style="fill:rgb(122,91,55);fill-rule:nonzero;"/>
                    <path d="M27.15,19.32C27.44,19.78 27.49,20.35 27.35,20.84C27.2,21.35 26.88,21.75 26.51,22.06C25.76,22.67 24.82,22.89 23.92,22.85C23.63,22.83 23.35,22.79 23.08,22.71L24.61,24.24L24.36,24.24L24.36,24.49L22.83,22.96C22.9,23.23 22.95,23.52 22.97,23.8C23.01,24.7 22.79,25.64 22.18,26.39C21.88,26.76 21.47,27.08 20.96,27.23C20.46,27.37 19.9,27.32 19.44,27.03C19.21,26.88 19.01,26.69 18.88,26.43C18.76,26.18 18.71,25.91 18.73,25.65C18.75,25.39 18.84,25.15 18.98,24.94C19.13,24.74 19.34,24.59 19.57,24.54L19.6,24.61C19.27,24.89 19.2,25.29 19.25,25.64C19.31,25.99 19.51,26.24 19.8,26.38C20.08,26.52 20.44,26.56 20.78,26.51C21.11,26.46 21.45,26.27 21.71,26C21.97,25.72 22.18,25.38 22.32,25C22.47,24.63 22.55,24.22 22.57,23.81C22.59,23.41 22.55,23 22.45,22.61L20.1,20.26L20.35,20.01L22.7,22.36C23.1,22.46 23.5,22.5 23.91,22.48C24.32,22.46 24.72,22.38 25.1,22.23C25.48,22.09 25.82,21.88 26.1,21.62C26.37,21.35 26.56,21.02 26.61,20.68C26.66,20.34 26.62,19.99 26.48,19.7C26.34,19.41 26.1,19.21 25.74,19.15C25.4,19.1 24.99,19.17 24.71,19.5L24.64,19.47C24.68,19.24 24.84,19.03 25.04,18.88C25.24,18.74 25.49,18.65 25.75,18.63C26.01,18.6 26.28,18.66 26.53,18.78C26.79,18.91 26.98,19.11 27.13,19.34L27.15,19.32Z" style="fill:rgb(122,91,55);fill-rule:nonzero;"/>
                </g>
                <path d="M10.05,38.19C9.96,38.61 9.63,38.95 9.25,39.14C8.87,39.35 8.45,39.46 8.02,39.51C7.17,39.64 6.24,39.46 5.53,38.91C4.81,38.37 4.44,37.42 4.51,36.52C4.57,35.61 5.02,34.77 5.63,34.13C6.84,32.76 8.98,32.41 10.64,33.14C11.48,33.48 12.24,34.03 12.81,34.74C13.4,35.42 13.84,36.27 14.03,37.19C14.17,38.13 14,39.1 13.59,39.94C13.19,40.8 12.52,41.47 11.8,42.03C10.33,43.14 8.44,43.62 6.61,43.43C4.77,43.26 3,42.2 1.91,40.73C0.79,39.27 0.13,37.49 0.02,35.66C-0.21,31.98 1.36,28.6 2.97,25.64C4.57,22.63 6.23,19.7 7.33,16.58C7.89,15.02 8.31,13.43 8.56,11.81C8.78,10.19 8.96,8.51 8.68,7.03C8.54,6.28 8.29,5.61 7.89,5.03C7.46,4.44 6.91,3.89 6.3,3.45C5.7,3 5.01,2.68 4.36,2.55C4.03,2.48 3.72,2.48 3.43,2.52C3.16,2.56 2.81,2.71 2.78,2.77C2.73,2.8 2.57,3.15 2.53,3.42C2.48,3.71 2.49,4.02 2.56,4.35C2.69,5 3.02,5.69 3.46,6.29C3.9,6.9 4.44,7.45 5.04,7.88C5.61,8.29 6.29,8.54 7.04,8.67C8.52,8.94 10.2,8.77 11.82,8.55C13.43,8.31 15.03,7.88 16.59,7.32C19.71,6.22 22.64,4.56 25.65,2.96C28.61,1.36 31.99,-0.21 35.67,0.02C37.5,0.13 39.28,0.79 40.75,1.91C42.22,3 43.28,4.77 43.45,6.62C43.64,8.46 43.16,10.34 42.05,11.81C41.49,12.53 40.82,13.2 39.96,13.6C39.12,14.01 38.15,14.19 37.2,14.04C36.27,13.85 35.43,13.41 34.74,12.82C34.04,12.25 33.48,11.49 33.14,10.65C32.4,8.99 32.75,6.85 34.13,5.64C34.78,5.03 35.62,4.58 36.52,4.52C37.42,4.45 38.37,4.82 38.91,5.54C39.46,6.25 39.65,7.18 39.51,8.03C39.45,8.46 39.34,8.88 39.14,9.26C38.94,9.64 38.61,9.97 38.19,10.06C38.61,9.95 38.91,9.61 39.08,9.23C39.26,8.85 39.35,8.43 39.38,8.02C39.47,7.19 39.23,6.34 38.7,5.72C38.18,5.1 37.35,4.81 36.56,4.91C35.76,5 35.04,5.42 34.47,6C33.3,7.13 33.09,8.97 33.78,10.39C34.42,11.83 35.86,12.9 37.33,13.16C38.84,13.34 40.33,12.5 41.21,11.21C42.13,9.94 42.49,8.31 42.29,6.77C42.1,5.22 41.24,3.86 39.97,2.95C38.71,2.04 37.16,1.5 35.6,1.45C34.02,1.39 32.42,1.72 30.89,2.28C29.35,2.83 27.89,3.58 26.4,4.4C23.43,6.01 20.44,7.74 17.16,8.93C15.53,9.53 13.83,10 12.09,10.28C10.37,10.52 8.61,10.75 6.73,10.44C5.81,10.28 4.85,9.95 4.03,9.38C3.24,8.82 2.58,8.15 2.01,7.39C1.45,6.63 1,5.76 0.78,4.75C0.67,4.25 0.64,3.7 0.73,3.15C0.78,2.87 0.84,2.6 0.96,2.34C1.04,2.1 1.22,1.74 1.49,1.5C1.74,1.24 2.1,1.06 2.33,0.98C2.59,0.86 2.86,0.8 3.14,0.75C3.69,0.66 4.23,0.69 4.73,0.8C5.74,1.02 6.61,1.47 7.37,2.03C8.13,2.59 8.8,3.26 9.36,4.05C9.93,4.87 10.27,5.83 10.42,6.75C10.73,8.63 10.51,10.38 10.26,12.11C9.98,13.85 9.51,15.55 8.91,17.18C7.72,20.47 5.98,23.46 4.38,26.42C3.56,27.91 2.81,29.37 2.26,30.91C1.7,32.44 1.37,34.03 1.43,35.62C1.48,37.18 2.02,38.74 2.93,39.99C3.84,41.26 5.2,42.12 6.75,42.32C8.28,42.52 9.92,42.15 11.19,41.23C12.48,40.35 13.32,38.86 13.14,37.35C12.88,35.88 11.81,34.43 10.36,33.8C8.94,33.11 7.1,33.32 5.97,34.49C5.4,35.05 4.97,35.78 4.89,36.58C4.79,37.37 5.08,38.2 5.7,38.72C6.32,39.25 7.16,39.48 8,39.4C8.42,39.37 8.83,39.28 9.21,39.1C9.59,38.93 9.93,38.63 10.04,38.21L10.05,38.19Z" style="fill:rgb(122,91,55);fill-rule:nonzero;"/>
                <path d="M38.22,10.11C38.4,9.27 38.16,8.37 37.53,7.8C36.91,7.22 36.08,6.91 35.25,6.77C33.55,6.53 31.83,7.01 30.27,7.7C28.69,8.4 27.23,9.34 25.79,10.32C24.33,11.3 22.82,12.22 21.25,13.02C18.12,14.64 14.7,15.79 11.16,16.21C7.62,16.65 4,16.27 0.57,15.29L1.36,14.71L1.44,20.38L0.91,19.71C2.42,20.04 3.86,20.51 5.28,20.86C6.71,21.23 8.09,21.42 9.57,21.45C12.48,21.59 15.39,21.15 18.21,20.37C21,19.58 23.6,18.12 25.14,15.66C25.93,14.45 26.48,13.08 26.88,11.66L27.44,9.49C27.61,8.77 27.78,8.04 27.61,7.32L27.76,7.27C28.03,8.01 27.95,8.82 27.85,9.56L27.5,11.8C27.23,13.31 26.73,14.79 25.98,16.16C25.24,17.53 24.16,18.78 22.85,19.68C21.56,20.59 20.11,21.24 18.65,21.74C15.73,22.72 12.61,23.19 9.52,23.05C7.99,22.99 6.39,22.76 4.92,22.33C3.44,21.92 2.03,21.42 0.61,21.07L0.07,20.93L0.07,20.39L0.16,14.72L0.16,13.9L0.95,14.14C4.22,15.15 7.67,15.58 11.08,15.24C14.49,14.91 17.83,13.87 20.94,12.35C22.5,11.6 24.01,10.75 25.48,9.82C26.96,8.89 28.48,7.97 30.12,7.3C31.75,6.64 33.55,6.19 35.34,6.5C36.21,6.67 37.08,7.02 37.73,7.67C38.4,8.31 38.63,9.31 38.41,10.18L38.26,10.15L38.22,10.11Z" style="fill:rgb(122,91,55);fill-rule:nonzero;"/>
                <path d="M10.14,38.37C9.27,38.59 8.27,38.37 7.63,37.69C6.99,37.04 6.64,36.17 6.46,35.3C6.15,33.51 6.6,31.71 7.26,30.08C7.93,28.44 8.85,26.92 9.78,25.44C10.71,23.97 11.56,22.46 12.31,20.9C13.83,17.79 14.87,14.46 15.2,11.04C15.54,7.63 15.11,4.17 14.1,0.91L13.86,0.13L14.68,0.13L20.35,0.04L20.89,0.04L21.03,0.57C21.38,1.99 21.88,3.39 22.29,4.88C22.72,6.35 22.95,7.96 23.01,9.48C23.15,12.57 22.68,15.69 21.7,18.61C21.21,20.08 20.56,21.52 19.64,22.81C18.75,24.12 17.49,25.2 16.12,25.94C14.75,26.69 13.27,27.19 11.76,27.46L9.52,27.81C8.77,27.91 7.97,28 7.23,27.72L7.28,27.57C7.99,27.73 8.73,27.57 9.45,27.4L11.62,26.84C13.04,26.44 14.41,25.89 15.62,25.1C18.08,23.56 19.54,20.96 20.33,18.17C21.12,15.35 21.55,12.45 21.41,9.53C21.38,8.05 21.19,6.67 20.82,5.24C20.47,3.82 20.01,2.38 19.67,0.87L20.34,1.4L14.67,1.32L15.25,0.53C16.23,3.96 16.6,7.58 16.17,11.12C15.75,14.66 14.59,18.08 12.98,21.21C12.17,22.78 11.26,24.29 10.28,25.75C9.31,27.2 8.37,28.66 7.66,30.23C6.97,31.79 6.49,33.52 6.73,35.21C6.87,36.04 7.18,36.88 7.76,37.49C8.33,38.12 9.23,38.36 10.07,38.18L10.1,38.33L10.14,38.37Z" style="fill:rgb(122,91,55);fill-rule:nonzero;"/>
            </g>
            <g>
                <g>
                    <path d="M288.88,25.4L290.04,24.24L288.24,24.24L288.24,26.31L290.3,26.31L290.3,24.5L289.14,25.66L288.88,25.4Z" style="fill:rgb(122,91,55);fill-rule:nonzero;"/>
                    <path d="M290.04,24.24L288.88,25.4L289.14,25.66L290.3,24.5L290.3,24.24L290.04,24.24Z" style="fill:rgb(122,91,55);fill-rule:nonzero;"/>
                    <path d="M287.51,19.32C287.22,19.78 287.17,20.35 287.31,20.84C287.46,21.35 287.78,21.75 288.15,22.06C288.9,22.67 289.84,22.89 290.74,22.85C291.03,22.83 291.31,22.79 291.58,22.71L290.05,24.24L290.3,24.24L290.3,24.49L291.83,22.96C291.76,23.23 291.71,23.52 291.69,23.8C291.65,24.7 291.87,25.64 292.48,26.39C292.78,26.76 293.19,27.08 293.7,27.23C294.2,27.37 294.76,27.32 295.22,27.03C295.45,26.88 295.65,26.69 295.78,26.43C295.9,26.18 295.95,25.91 295.93,25.65C295.91,25.39 295.82,25.15 295.68,24.94C295.53,24.74 295.32,24.59 295.09,24.54L295.06,24.61C295.39,24.89 295.46,25.29 295.41,25.64C295.35,25.99 295.15,26.24 294.86,26.38C294.58,26.52 294.22,26.56 293.88,26.51C293.55,26.46 293.21,26.27 292.95,26C292.69,25.72 292.48,25.38 292.34,25C292.19,24.63 292.11,24.22 292.09,23.81C292.07,23.41 292.11,23 292.21,22.61L294.56,20.26L294.31,20.01L291.96,22.36C291.56,22.46 291.16,22.5 290.75,22.48C290.34,22.46 289.94,22.38 289.56,22.23C289.18,22.09 288.84,21.88 288.56,21.62C288.29,21.35 288.1,21.02 288.05,20.68C288,20.34 288.04,19.99 288.18,19.7C288.32,19.41 288.56,19.21 288.92,19.15C289.26,19.1 289.67,19.17 289.95,19.5L290.02,19.47C289.98,19.24 289.82,19.03 289.62,18.88C289.42,18.74 289.17,18.65 288.91,18.63C288.65,18.6 288.38,18.66 288.13,18.78C287.87,18.91 287.68,19.11 287.53,19.34L287.51,19.32Z" style="fill:rgb(122,91,55);fill-rule:nonzero;"/>
                </g>
                <path d="M304.6,38.19C304.71,38.61 305.05,38.91 305.43,39.08C305.81,39.26 306.23,39.35 306.64,39.38C307.47,39.47 308.32,39.23 308.94,38.7C309.56,38.18 309.85,37.35 309.75,36.56C309.66,35.76 309.24,35.04 308.67,34.47C307.54,33.3 305.7,33.09 304.28,33.78C302.84,34.42 301.77,35.86 301.5,37.33C301.32,38.84 302.16,40.33 303.45,41.21C304.72,42.13 306.35,42.49 307.89,42.3C309.44,42.11 310.8,41.24 311.71,39.97C312.62,38.71 313.16,37.16 313.21,35.6C313.27,34.02 312.94,32.42 312.38,30.89C311.83,29.35 311.08,27.89 310.26,26.4C308.65,23.43 306.92,20.44 305.73,17.16C305.13,15.53 304.66,13.83 304.38,12.09C304.14,10.37 303.91,8.61 304.22,6.73C304.38,5.81 304.71,4.85 305.28,4.03C305.84,3.24 306.51,2.58 307.27,2.01C308.03,1.45 308.9,1 309.91,0.78C310.41,0.67 310.96,0.64 311.5,0.73C311.78,0.78 312.05,0.84 312.31,0.96C312.55,1.04 312.9,1.22 313.15,1.48C313.41,1.73 313.6,2.09 313.68,2.32C313.8,2.58 313.86,2.85 313.91,3.13C314,3.68 313.97,4.23 313.86,4.73C313.64,5.74 313.19,6.61 312.63,7.37C312.07,8.13 311.4,8.8 310.61,9.36C309.79,9.93 308.83,10.27 307.91,10.42C306.03,10.73 304.28,10.51 302.55,10.26C300.81,9.98 299.11,9.51 297.48,8.91C294.19,7.72 291.2,5.98 288.24,4.38C286.75,3.56 285.29,2.81 283.75,2.26C282.22,1.7 280.63,1.37 279.04,1.43C277.48,1.48 275.93,2.02 274.67,2.93C273.4,3.84 272.54,5.2 272.35,6.75C272.15,8.28 272.52,9.92 273.43,11.19C274.31,12.48 275.8,13.32 277.31,13.14C278.78,12.88 280.22,11.81 280.86,10.37C281.55,8.95 281.34,7.11 280.17,5.98C279.61,5.41 278.88,4.98 278.08,4.89C277.29,4.79 276.46,5.08 275.94,5.7C275.41,6.31 275.18,7.16 275.26,8C275.29,8.42 275.38,8.83 275.56,9.21C275.73,9.59 276.03,9.93 276.45,10.04C276.03,9.95 275.69,9.62 275.5,9.24C275.29,8.86 275.18,8.44 275.13,8.01C275,7.16 275.18,6.23 275.73,5.52C276.27,4.8 277.22,4.43 278.12,4.5C279.03,4.56 279.87,5.01 280.51,5.62C281.88,6.83 282.23,8.97 281.5,10.63C281.16,11.47 280.61,12.23 279.9,12.8C279.22,13.39 278.37,13.83 277.44,14.02C276.5,14.16 275.53,13.99 274.68,13.58C273.82,13.18 273.15,12.51 272.59,11.79C271.48,10.32 271,8.43 271.19,6.6C271.36,4.76 272.42,2.99 273.89,1.89C275.35,0.77 277.13,0.11 278.97,0C282.65,-0.23 286.03,1.34 288.99,2.96C292,4.56 294.93,6.22 298.05,7.32C299.61,7.88 301.2,8.3 302.82,8.55C304.44,8.77 306.12,8.95 307.6,8.67C308.35,8.53 309.02,8.28 309.6,7.88C310.19,7.45 310.74,6.9 311.18,6.29C311.62,5.69 311.95,5 312.08,4.35C312.15,4.02 312.15,3.71 312.11,3.42C312.07,3.15 311.92,2.8 311.86,2.77C311.83,2.71 311.48,2.56 311.21,2.52C310.92,2.47 310.61,2.48 310.28,2.55C309.63,2.68 308.94,3.01 308.34,3.45C307.73,3.89 307.18,4.43 306.75,5.03C306.34,5.6 306.09,6.28 305.96,7.03C305.69,8.51 305.86,10.19 306.08,11.81C306.32,13.42 306.75,15.02 307.31,16.58C308.41,19.7 310.07,22.63 311.67,25.64C313.29,28.6 314.85,31.99 314.62,35.66C314.51,37.49 313.85,39.27 312.73,40.73C311.64,42.2 309.87,43.26 308.03,43.43C306.19,43.62 304.31,43.14 302.84,42.03C302.12,41.47 301.45,40.8 301.05,39.94C300.64,39.1 300.46,38.13 300.61,37.19C300.8,36.26 301.24,35.42 301.83,34.74C302.4,34.04 303.16,33.48 304,33.14C305.66,32.4 307.8,32.75 309.01,34.13C309.62,34.78 310.07,35.62 310.13,36.52C310.2,37.42 309.83,38.37 309.11,38.91C308.4,39.46 307.47,39.65 306.62,39.51C306.19,39.45 305.77,39.34 305.39,39.14C305.01,38.94 304.68,38.61 304.59,38.19L304.6,38.19Z" style="fill:rgb(122,91,55);fill-rule:nonzero;"/>
                <path d="M276.29,10.14C276.07,9.27 276.29,8.27 276.97,7.63C277.62,6.99 278.49,6.64 279.36,6.46C281.15,6.15 282.95,6.6 284.58,7.26C286.22,7.93 287.74,8.85 289.22,9.78C290.69,10.71 292.2,11.56 293.76,12.31C296.87,13.83 300.2,14.87 303.62,15.2C307.03,15.54 310.49,15.11 313.75,14.1L314.53,13.86L314.53,14.68L314.62,20.35L314.62,20.89L314.09,21.03C312.67,21.38 311.27,21.88 309.78,22.29C308.31,22.72 306.7,22.95 305.18,23.01C302.09,23.15 298.97,22.68 296.05,21.7C294.58,21.21 293.14,20.56 291.85,19.64C290.54,18.75 289.46,17.49 288.72,16.12C287.97,14.75 287.47,13.27 287.2,11.76L286.85,9.52C286.75,8.77 286.66,7.97 286.94,7.23L287.09,7.28C286.93,7.99 287.09,8.73 287.26,9.45L287.82,11.62C288.22,13.04 288.77,14.41 289.56,15.62C291.1,18.08 293.7,19.54 296.49,20.33C299.31,21.12 302.21,21.55 305.13,21.41C306.61,21.38 307.99,21.19 309.42,20.82C310.84,20.47 312.28,20.01 313.79,19.67L313.26,20.34L313.34,14.67L314.13,15.25C310.7,16.23 307.08,16.6 303.54,16.17C300,15.75 296.58,14.59 293.45,12.98C291.88,12.17 290.37,11.26 288.91,10.28C287.46,9.31 286,8.37 284.43,7.66C282.87,6.97 281.14,6.49 279.45,6.73C278.62,6.87 277.78,7.18 277.17,7.76C276.54,8.33 276.3,9.23 276.48,10.07L276.33,10.1L276.29,10.14Z" style="fill:rgb(122,91,55);fill-rule:nonzero;"/>
                <path d="M304.55,38.22C305.39,38.4 306.29,38.16 306.86,37.53C307.44,36.91 307.75,36.08 307.89,35.25C308.13,33.55 307.65,31.83 306.96,30.27C306.26,28.69 305.32,27.23 304.34,25.79C303.36,24.33 302.45,22.82 301.64,21.25C300.02,18.12 298.87,14.7 298.45,11.16C298.01,7.62 298.39,4 299.37,0.57L299.95,1.36L294.28,1.44L294.95,0.91C294.62,2.42 294.15,3.86 293.8,5.28C293.43,6.71 293.24,8.09 293.21,9.57C293.07,12.48 293.51,15.39 294.29,18.21C295.08,21 296.54,23.6 299,25.14C300.21,25.93 301.58,26.48 303,26.88L305.17,27.44C305.89,27.61 306.62,27.78 307.34,27.61L307.39,27.76C306.65,28.03 305.84,27.95 305.1,27.85L302.86,27.5C301.35,27.23 299.87,26.73 298.5,25.98C297.13,25.24 295.88,24.16 294.98,22.85C294.07,21.56 293.42,20.11 292.92,18.65C291.94,15.73 291.47,12.61 291.61,9.52C291.67,7.99 291.9,6.38 292.33,4.92C292.74,3.44 293.24,2.03 293.59,0.61L293.73,0.07L294.27,0.07L299.94,0.16L300.76,0.16L300.52,0.95C299.51,4.22 299.08,7.67 299.42,11.08C299.75,14.49 300.79,17.83 302.31,20.94C303.06,22.5 303.91,24.01 304.84,25.48C305.77,26.96 306.69,28.48 307.36,30.12C308.02,31.75 308.47,33.55 308.16,35.34C307.99,36.21 307.64,37.08 306.99,37.73C306.35,38.4 305.35,38.63 304.48,38.41L304.51,38.26L304.55,38.22Z" style="fill:rgb(122,91,55);fill-rule:nonzero;"/>
            </g>
            <g>
                <g>
                    <path d="M25.77,191.58L24.61,192.74L26.42,192.74L26.42,190.67L24.36,190.67L24.36,192.48L25.52,191.32L25.77,191.58Z" style="fill:rgb(122,91,55);fill-rule:nonzero;"/>
                    <path d="M24.61,192.74L25.77,191.58L25.52,191.32L24.36,192.48L24.36,192.74L24.61,192.74Z" style="fill:rgb(122,91,55);fill-rule:nonzero;"/>
                    <path d="M27.15,197.66C27.44,197.2 27.49,196.63 27.35,196.14C27.2,195.63 26.88,195.23 26.51,194.92C25.76,194.31 24.82,194.09 23.92,194.13C23.63,194.15 23.35,194.19 23.08,194.27L24.61,192.74L24.36,192.74L24.36,192.49L22.83,194.02C22.9,193.75 22.95,193.46 22.97,193.18C23.01,192.28 22.79,191.34 22.18,190.59C21.88,190.22 21.47,189.9 20.96,189.75C20.46,189.61 19.9,189.66 19.44,189.95C19.21,190.1 19.01,190.29 18.88,190.55C18.76,190.8 18.71,191.07 18.73,191.33C18.75,191.59 18.84,191.83 18.98,192.04C19.13,192.24 19.34,192.39 19.57,192.44L19.6,192.37C19.27,192.09 19.2,191.69 19.25,191.34C19.31,190.99 19.51,190.74 19.8,190.6C20.08,190.46 20.44,190.42 20.78,190.47C21.11,190.52 21.45,190.71 21.71,190.98C21.97,191.26 22.18,191.6 22.32,191.98C22.47,192.35 22.55,192.76 22.57,193.17C22.59,193.57 22.55,193.98 22.45,194.37L20.1,196.72L20.35,196.97L22.7,194.62C23.1,194.52 23.5,194.48 23.91,194.5C24.32,194.52 24.72,194.6 25.1,194.75C25.48,194.89 25.82,195.1 26.1,195.36C26.37,195.63 26.56,195.96 26.61,196.29C26.66,196.63 26.62,196.98 26.48,197.27C26.34,197.56 26.1,197.76 25.74,197.82C25.4,197.87 24.99,197.8 24.71,197.47L24.64,197.5C24.68,197.73 24.84,197.94 25.04,198.09C25.24,198.23 25.49,198.32 25.75,198.34C26.01,198.37 26.28,198.31 26.53,198.19C26.79,198.06 26.98,197.86 27.13,197.63L27.15,197.66Z" style="fill:rgb(122,91,55);fill-rule:nonzero;"/>
                </g>
                <path d="M10.05,178.79C9.94,178.37 9.6,178.07 9.22,177.9C8.84,177.72 8.42,177.63 8.01,177.6C7.18,177.51 6.33,177.75 5.71,178.28C5.09,178.8 4.8,179.63 4.9,180.42C4.99,181.22 5.41,181.94 5.98,182.51C7.11,183.68 8.95,183.89 10.37,183.2C11.81,182.56 12.88,181.12 13.15,179.65C13.33,178.14 12.49,176.65 11.2,175.77C9.93,174.85 8.3,174.49 6.76,174.68C5.21,174.87 3.85,175.74 2.94,177.01C2.03,178.27 1.49,179.82 1.44,181.38C1.38,182.96 1.71,184.56 2.27,186.09C2.82,187.63 3.57,189.09 4.39,190.58C6,193.55 7.73,196.54 8.92,199.82C9.52,201.45 9.99,203.15 10.27,204.89C10.51,206.61 10.74,208.37 10.43,210.25C10.27,211.17 9.94,212.13 9.37,212.95C8.81,213.74 8.14,214.4 7.38,214.97C6.62,215.53 5.75,215.98 4.74,216.2C4.24,216.31 3.69,216.34 3.15,216.25C2.87,216.2 2.6,216.14 2.34,216.02C2.1,215.94 1.75,215.76 1.5,215.5C1.24,215.25 1.05,214.89 0.97,214.66C0.85,214.4 0.79,214.13 0.74,213.85C0.65,213.3 0.68,212.75 0.79,212.25C1.01,211.24 1.46,210.37 2.02,209.61C2.58,208.85 3.25,208.18 4.04,207.62C4.86,207.05 5.82,206.71 6.74,206.56C8.62,206.25 10.37,206.47 12.1,206.72C13.84,207 15.54,207.47 17.17,208.07C20.46,209.26 23.45,211 26.41,212.6C27.9,213.42 29.36,214.17 30.9,214.72C32.43,215.28 34.02,215.61 35.61,215.55C37.17,215.5 38.72,214.96 39.98,214.05C41.25,213.14 42.11,211.78 42.3,210.23C42.5,208.7 42.13,207.06 41.22,205.79C40.34,204.5 38.85,203.65 37.34,203.84C35.87,204.1 34.43,205.17 33.79,206.61C33.1,208.03 33.31,209.87 34.48,211C35.04,211.57 35.77,212 36.57,212.09C37.36,212.19 38.19,211.9 38.71,211.28C39.24,210.67 39.47,209.82 39.39,208.98C39.36,208.56 39.27,208.15 39.09,207.77C38.92,207.39 38.62,207.05 38.2,206.94C38.62,207.03 38.96,207.36 39.15,207.74C39.36,208.12 39.47,208.54 39.52,208.97C39.65,209.82 39.47,210.75 38.92,211.46C38.38,212.18 37.43,212.55 36.53,212.48C35.62,212.42 34.78,211.97 34.14,211.36C32.77,210.15 32.42,208.01 33.15,206.35C33.49,205.51 34.04,204.75 34.75,204.18C35.43,203.59 36.28,203.15 37.21,202.96C38.15,202.82 39.12,202.99 39.97,203.4C40.83,203.8 41.5,204.47 42.06,205.19C43.17,206.66 43.65,208.55 43.46,210.38C43.29,212.22 42.23,213.99 40.76,215.09C39.3,216.21 37.52,216.87 35.68,216.98C32,217.21 28.62,215.64 25.66,214.02C22.65,212.42 19.72,210.76 16.6,209.66C15.04,209.1 13.45,208.68 11.83,208.43C10.21,208.21 8.53,208.03 7.05,208.31C6.3,208.45 5.63,208.7 5.05,209.1C4.46,209.53 3.91,210.08 3.47,210.69C3.03,211.29 2.7,211.98 2.57,212.63C2.5,212.96 2.5,213.27 2.54,213.56C2.58,213.83 2.73,214.18 2.79,214.21C2.82,214.27 3.17,214.42 3.44,214.46C3.73,214.51 4.04,214.51 4.37,214.43C5.02,214.3 5.71,213.97 6.31,213.53C6.92,213.09 7.47,212.54 7.9,211.95C8.31,211.38 8.56,210.7 8.69,209.95C8.96,208.47 8.79,206.79 8.57,205.17C8.33,203.56 7.9,201.96 7.34,200.4C6.24,197.28 4.58,194.35 2.98,191.34C1.36,188.38 -0.2,184.99 0.03,181.32C0.14,179.49 0.8,177.71 1.92,176.25C3.01,174.78 4.78,173.72 6.62,173.55C8.46,173.36 10.34,173.84 11.81,174.95C12.53,175.51 13.2,176.18 13.6,177.04C14.01,177.88 14.19,178.85 14.04,179.79C13.85,180.72 13.41,181.56 12.82,182.25C12.25,182.95 11.49,183.51 10.65,183.85C8.99,184.59 6.85,184.24 5.64,182.86C5.03,182.21 4.58,181.37 4.52,180.47C4.45,179.57 4.82,178.62 5.54,178.08C6.25,177.53 7.18,177.34 8.03,177.48C8.46,177.54 8.88,177.65 9.26,177.85C9.64,178.05 9.97,178.38 10.06,178.8L10.05,178.79Z" style="fill:rgb(122,91,55);fill-rule:nonzero;"/>
                <path d="M38.37,206.84C38.59,207.71 38.37,208.71 37.69,209.35C37.04,209.99 36.17,210.34 35.3,210.52C33.51,210.83 31.71,210.38 30.08,209.72C28.44,209.05 26.92,208.13 25.44,207.2C23.97,206.27 22.46,205.42 20.9,204.67C17.79,203.15 14.46,202.11 11.04,201.78C7.63,201.44 4.17,201.87 0.91,202.88L0.13,203.12L0.13,202.3L0.04,196.63L0.04,196.09L0.57,195.95C1.99,195.6 3.39,195.1 4.88,194.69C6.35,194.26 7.96,194.03 9.48,193.97C12.57,193.83 15.69,194.3 18.61,195.28C20.08,195.77 21.52,196.42 22.81,197.34C24.12,198.23 25.2,199.49 25.94,200.86C26.69,202.23 27.19,203.71 27.46,205.22L27.81,207.46C27.91,208.21 28,209.01 27.72,209.75L27.57,209.7C27.73,208.99 27.57,208.25 27.4,207.53L26.84,205.36C26.44,203.94 25.89,202.57 25.1,201.36C23.56,198.9 20.96,197.44 18.17,196.65C15.35,195.86 12.45,195.43 9.53,195.57C8.05,195.6 6.67,195.79 5.24,196.16C3.82,196.51 2.38,196.97 0.87,197.31L1.4,196.64L1.32,202.31L0.53,201.73C3.96,200.75 7.58,200.38 11.12,200.81C14.66,201.23 18.08,202.39 21.21,204C22.78,204.81 24.29,205.72 25.75,206.7C27.2,207.67 28.66,208.61 30.23,209.32C31.79,210.01 33.52,210.49 35.21,210.25C36.04,210.11 36.88,209.8 37.49,209.22C38.12,208.65 38.36,207.75 38.18,206.91L38.33,206.88L38.37,206.84Z" style="fill:rgb(122,91,55);fill-rule:nonzero;"/>
                <path d="M10.11,178.76C9.27,178.58 8.37,178.82 7.8,179.45C7.22,180.07 6.91,180.9 6.77,181.73C6.53,183.43 7.01,185.15 7.7,186.71C8.4,188.29 9.34,189.75 10.32,191.19C11.3,192.65 12.21,194.16 13.02,195.73C14.64,198.86 15.79,202.28 16.21,205.82C16.65,209.36 16.27,212.98 15.29,216.41L14.71,215.62L20.38,215.54L19.71,216.07C20.04,214.56 20.51,213.12 20.86,211.7C21.23,210.27 21.42,208.89 21.45,207.41C21.59,204.5 21.15,201.59 20.37,198.77C19.58,195.98 18.12,193.38 15.66,191.84C14.45,191.05 13.08,190.5 11.66,190.1L9.49,189.54C8.77,189.37 8.04,189.2 7.32,189.37L7.27,189.22C8.01,188.95 8.82,189.03 9.56,189.13L11.8,189.48C13.31,189.75 14.79,190.25 16.16,191C17.53,191.74 18.78,192.82 19.68,194.13C20.59,195.42 21.24,196.87 21.74,198.33C22.72,201.25 23.19,204.37 23.05,207.46C22.99,208.99 22.76,210.6 22.33,212.06C21.92,213.54 21.42,214.95 21.07,216.37L20.93,216.91L20.39,216.91L14.72,216.82L13.9,216.82L14.14,216.03C15.15,212.76 15.58,209.31 15.24,205.9C14.91,202.49 13.87,199.15 12.35,196.04C11.6,194.48 10.75,192.97 9.82,191.5C8.89,190.02 7.97,188.5 7.3,186.86C6.64,185.23 6.19,183.43 6.5,181.64C6.67,180.77 7.02,179.9 7.67,179.25C8.31,178.58 9.31,178.35 10.18,178.57L10.15,178.72L10.11,178.76Z" style="fill:rgb(122,91,55);fill-rule:nonzero;"/>
            </g>
            <g>
                <g>
                    <path d="M288.88,191.58L290.04,192.74L288.24,192.74L288.24,190.67L290.3,190.67L290.3,192.48L289.14,191.32L288.88,191.58Z" style="fill:rgb(122,91,55);fill-rule:nonzero;"/>
                    <path d="M290.04,192.74L288.88,191.58L289.14,191.32L290.3,192.48L290.3,192.74L290.04,192.74Z" style="fill:rgb(122,91,55);fill-rule:nonzero;"/>
                    <path d="M287.51,197.66C287.22,197.2 287.17,196.63 287.31,196.14C287.46,195.63 287.78,195.23 288.15,194.92C288.9,194.31 289.84,194.09 290.74,194.13C291.03,194.15 291.31,194.19 291.58,194.27L290.05,192.74L290.3,192.74L290.3,192.49L291.83,194.02C291.76,193.75 291.71,193.46 291.69,193.18C291.65,192.28 291.87,191.34 292.48,190.59C292.78,190.22 293.19,189.9 293.7,189.75C294.2,189.61 294.76,189.66 295.22,189.95C295.45,190.1 295.65,190.29 295.78,190.55C295.9,190.8 295.95,191.07 295.93,191.33C295.91,191.59 295.82,191.83 295.68,192.04C295.53,192.24 295.32,192.39 295.09,192.44L295.06,192.37C295.39,192.09 295.46,191.69 295.41,191.34C295.35,190.99 295.15,190.74 294.86,190.6C294.58,190.46 294.22,190.42 293.88,190.47C293.55,190.52 293.21,190.71 292.95,190.98C292.69,191.26 292.48,191.6 292.34,191.98C292.19,192.35 292.11,192.76 292.09,193.17C292.07,193.57 292.11,193.98 292.21,194.37L294.56,196.72L294.31,196.97L291.96,194.62C291.56,194.52 291.16,194.48 290.75,194.5C290.34,194.52 289.94,194.6 289.56,194.75C289.18,194.89 288.84,195.1 288.56,195.36C288.29,195.63 288.1,195.96 288.05,196.29C288,196.63 288.04,196.98 288.18,197.27C288.32,197.56 288.56,197.76 288.92,197.82C289.26,197.87 289.67,197.8 289.95,197.47L290.02,197.5C289.98,197.73 289.82,197.94 289.62,198.09C289.42,198.23 289.17,198.32 288.91,198.34C288.65,198.37 288.38,198.31 288.13,198.19C287.87,198.06 287.68,197.86 287.53,197.63L287.51,197.66Z" style="fill:rgb(122,91,55);fill-rule:nonzero;"/>
                </g>
                <path d="M304.6,178.79C304.69,178.37 305.02,178.03 305.4,177.84C305.78,177.63 306.2,177.52 306.63,177.47C307.48,177.34 308.41,177.52 309.12,178.07C309.84,178.61 310.21,179.56 310.14,180.46C310.08,181.37 309.63,182.21 309.02,182.85C307.81,184.22 305.67,184.57 304.01,183.84C303.17,183.5 302.41,182.95 301.84,182.24C301.25,181.56 300.81,180.71 300.62,179.78C300.48,178.84 300.65,177.87 301.06,177.03C301.46,176.17 302.13,175.5 302.85,174.94C304.32,173.83 306.21,173.35 308.04,173.54C309.88,173.71 311.65,174.77 312.74,176.24C313.86,177.7 314.52,179.48 314.63,181.31C314.86,184.99 313.29,188.37 311.68,191.33C310.08,194.34 308.42,197.27 307.32,200.39C306.76,201.95 306.34,203.54 306.09,205.16C305.87,206.79 305.69,208.46 305.97,209.94C306.11,210.69 306.36,211.36 306.76,211.94C307.19,212.53 307.74,213.08 308.35,213.52C308.95,213.97 309.64,214.29 310.29,214.42C310.62,214.49 310.93,214.5 311.22,214.45C311.49,214.41 311.84,214.26 311.87,214.2C311.92,214.17 312.08,213.82 312.12,213.55C312.17,213.26 312.16,212.95 312.09,212.62C311.96,211.97 311.63,211.28 311.19,210.68C310.75,210.07 310.21,209.52 309.61,209.09C309.04,208.68 308.36,208.43 307.61,208.3C306.13,208.03 304.45,208.2 302.83,208.42C301.22,208.66 299.62,209.09 298.06,209.65C294.94,210.75 292.01,212.41 289,214.01C286.04,215.63 282.66,217.2 278.98,216.97C277.15,216.86 275.37,216.2 273.9,215.08C272.43,213.99 271.37,212.22 271.2,210.37C271.01,208.53 271.49,206.65 272.6,205.18C273.16,204.46 273.83,203.79 274.69,203.39C275.53,202.98 276.5,202.8 277.45,202.95C278.38,203.14 279.22,203.58 279.91,204.17C280.61,204.74 281.17,205.5 281.51,206.34C282.25,208 281.9,210.14 280.52,211.35C279.87,211.96 279.03,212.41 278.13,212.47C277.23,212.54 276.28,212.17 275.74,211.45C275.19,210.74 275,209.81 275.14,208.96C275.2,208.53 275.31,208.11 275.51,207.73C275.71,207.35 276.04,207.02 276.46,206.93C276.04,207.04 275.74,207.38 275.57,207.76C275.39,208.14 275.3,208.56 275.27,208.97C275.18,209.8 275.42,210.65 275.95,211.27C276.47,211.89 277.3,212.18 278.09,212.08C278.89,211.99 279.61,211.57 280.18,210.99C281.35,209.86 281.56,208.02 280.87,206.6C280.23,205.16 278.79,204.09 277.32,203.83C275.81,203.65 274.32,204.49 273.44,205.78C272.52,207.05 272.16,208.68 272.36,210.22C272.55,211.77 273.41,213.13 274.68,214.04C275.94,214.95 277.49,215.49 279.05,215.54C280.63,215.6 282.23,215.27 283.76,214.71C285.3,214.16 286.76,213.41 288.25,212.59C291.22,210.98 294.21,209.25 297.49,208.06C299.12,207.46 300.82,206.99 302.56,206.71C304.28,206.47 306.04,206.24 307.92,206.55C308.84,206.71 309.8,207.04 310.62,207.61C311.41,208.17 312.07,208.84 312.64,209.6C313.2,210.36 313.65,211.23 313.87,212.24C313.98,212.74 314.01,213.29 313.92,213.84C313.87,214.12 313.81,214.39 313.69,214.65C313.61,214.89 313.43,215.25 313.16,215.49C312.91,215.75 312.55,215.93 312.32,216.01C312.06,216.13 311.79,216.19 311.51,216.24C310.96,216.33 310.42,216.3 309.92,216.19C308.91,215.97 308.04,215.52 307.28,214.96C306.52,214.4 305.85,213.73 305.29,212.94C304.72,212.12 304.38,211.16 304.23,210.24C303.92,208.36 304.14,206.61 304.39,204.88C304.67,203.14 305.14,201.44 305.74,199.81C306.93,196.52 308.67,193.53 310.27,190.57C311.09,189.08 311.84,187.62 312.39,186.08C312.95,184.55 313.28,182.96 313.22,181.37C313.17,179.81 312.63,178.25 311.72,177C310.81,175.73 309.45,174.87 307.9,174.67C306.37,174.47 304.73,174.84 303.46,175.76C302.17,176.64 301.33,178.13 301.51,179.64C301.77,181.11 302.84,182.56 304.29,183.19C305.71,183.88 307.55,183.67 308.68,182.5C309.25,181.94 309.68,181.21 309.76,180.41C309.86,179.62 309.57,178.79 308.95,178.27C308.33,177.74 307.49,177.51 306.65,177.59C306.23,177.62 305.82,177.71 305.44,177.89C305.06,178.06 304.72,178.36 304.61,178.78L304.6,178.79Z" style="fill:rgb(122,91,55);fill-rule:nonzero;"/>
                <path d="M276.44,206.87C276.26,207.71 276.5,208.61 277.13,209.18C277.75,209.76 278.58,210.07 279.41,210.21C281.11,210.45 282.83,209.97 284.39,209.28C285.97,208.58 287.43,207.64 288.87,206.66C290.33,205.68 291.84,204.77 293.41,203.96C296.54,202.34 299.96,201.19 303.5,200.77C307.04,200.33 310.66,200.71 314.09,201.69L313.3,202.27L313.22,196.6L313.75,197.27C312.24,196.94 310.8,196.47 309.38,196.12C307.95,195.75 306.57,195.56 305.09,195.53C302.18,195.39 299.27,195.83 296.45,196.61C293.66,197.4 291.06,198.86 289.52,201.32C288.73,202.53 288.18,203.9 287.78,205.32L287.22,207.49C287.05,208.21 286.88,208.94 287.05,209.66L286.9,209.71C286.63,208.97 286.71,208.16 286.81,207.42L287.16,205.18C287.43,203.67 287.93,202.19 288.68,200.82C289.42,199.45 290.5,198.2 291.81,197.3C293.1,196.39 294.55,195.74 296.01,195.24C298.93,194.26 302.05,193.79 305.14,193.93C306.67,193.99 308.28,194.22 309.74,194.65C311.22,195.06 312.63,195.56 314.05,195.91L314.59,196.05L314.59,196.59L314.5,202.26L314.5,203.08L313.71,202.84C310.44,201.83 306.99,201.4 303.58,201.74C300.17,202.07 296.83,203.11 293.72,204.63C292.16,205.38 290.65,206.23 289.18,207.16C287.7,208.09 286.18,209.01 284.54,209.68C282.91,210.34 281.11,210.79 279.32,210.48C278.45,210.31 277.58,209.96 276.93,209.31C276.26,208.67 276.03,207.67 276.25,206.8L276.4,206.83L276.44,206.87Z" style="fill:rgb(122,91,55);fill-rule:nonzero;"/>
                <path d="M304.51,178.61C305.38,178.39 306.38,178.61 307.02,179.29C307.66,179.94 308.01,180.81 308.19,181.68C308.5,183.47 308.05,185.27 307.39,186.9C306.72,188.54 305.8,190.06 304.87,191.54C303.94,193.01 303.09,194.52 302.34,196.08C300.82,199.19 299.78,202.52 299.45,205.94C299.11,209.35 299.54,212.81 300.55,216.07L300.79,216.85L299.97,216.85L294.3,216.94L293.76,216.94L293.62,216.41C293.27,214.99 292.77,213.59 292.36,212.1C291.93,210.63 291.7,209.02 291.64,207.5C291.5,204.41 291.97,201.29 292.95,198.37C293.44,196.9 294.09,195.46 295.01,194.17C295.9,192.86 297.16,191.78 298.53,191.04C299.9,190.29 301.38,189.79 302.89,189.52L305.13,189.17C305.88,189.07 306.68,188.98 307.42,189.26L307.37,189.41C306.66,189.25 305.92,189.41 305.2,189.58L303.03,190.14C301.61,190.54 300.24,191.09 299.03,191.88C296.57,193.42 295.11,196.02 294.32,198.81C293.53,201.63 293.1,204.53 293.24,207.45C293.27,208.93 293.46,210.31 293.83,211.74C294.18,213.16 294.64,214.6 294.98,216.11L294.31,215.58L299.98,215.66L299.4,216.45C298.42,213.02 298.05,209.4 298.48,205.86C298.9,202.32 300.06,198.9 301.67,195.77C302.48,194.2 303.39,192.69 304.37,191.23C305.34,189.78 306.28,188.32 306.99,186.75C307.68,185.19 308.16,183.46 307.92,181.77C307.78,180.94 307.47,180.1 306.89,179.49C306.32,178.86 305.42,178.62 304.58,178.8L304.55,178.65L304.51,178.61Z" style="fill:rgb(122,91,55);fill-rule:nonzero;"/>
            </g>
            <path d="M272,5.63L42.66,5.63" style="fill:none;fill-rule:nonzero;"/>
            <path d="M38.18,206.93L276.29,206.93" style="fill:none;fill-rule:nonzero;"/>
            <path d="M272,211.35L42.66,211.35" style="fill:none;fill-rule:nonzero;"/>
            <path d="M10.05,38.19L10.05,178.79" style="fill:none;fill-rule:nonzero;"/>
            <path d="M5.63,42.66L5.63,174.32" style="fill:none;fill-rule:nonzero;"/>
            <path d="M304.6,38.19L304.6,178.79" style="fill:none;fill-rule:nonzero;"/>
            <path d="M309.03,42.66L309.03,174.32" style="fill:none;fill-rule:nonzero;"/>
        </g>
    </g>
</svg>
