<?xml version="1.0" encoding="UTF-8" standalone="no"?>
<!DOCTYPE svg PUBLIC "-//W3C//DTD SVG 1.1//EN" "http://www.w3.org/Graphics/SVG/1.1/DTD/svg11.dtd">
<svg width="100%" height="100%" viewBox="0 0 121 121" version="1.1" xmlns="http://www.w3.org/2000/svg" xmlns:xlink="http://www.w3.org/1999/xlink" xml:space="preserve" xmlns:serif="http://www.serif.com/" style="fill-rule:evenodd;clip-rule:evenodd;stroke-linejoin:round;stroke-miterlimit:2;">
    <g id="frames" transform="matrix(-1,1.22465e-16,-1.22465e-16,-1,120.6,120.6)">
        <g>
            <path d="M119.32,80.73C119.2,80.25 119.05,79.76 118.89,79.28C120.84,74.45 120.89,69.34 120.15,64.65C119.31,59.46 117.52,54.57 115.07,50.1C116.28,48.32 117.46,46.44 118.45,44.36C119.44,42.27 120.18,39.92 120.33,37.46C120.41,36.24 120.33,34.93 120.09,33.71C119.83,32.48 119.42,31.3 118.89,30.18C117.81,27.96 116.24,26.01 114.32,24.5C112.41,22.99 110.14,21.86 107.68,21.41C105.38,20.99 103.02,21.12 100.77,21.91C99.74,21.85 98.72,22.21 97.83,22.75C98.38,21.86 98.73,20.84 98.67,19.81C99.46,17.56 99.59,15.2 99.17,12.9C98.72,10.44 97.6,8.17 96.08,6.26C94.56,4.34 92.62,2.77 90.4,1.69C89.29,1.16 88.1,0.74 86.87,0.49C85.65,0.24 84.34,0.16 83.12,0.25C80.66,0.41 78.3,1.14 76.22,2.13C74.14,3.12 72.26,4.29 70.48,5.51C66.01,3.07 61.12,1.28 55.93,0.43C51.24,-0.31 46.13,-0.26 41.3,1.69C40.82,1.53 40.33,1.38 39.85,1.26C37,0.56 34.14,0.42 31.44,0.41C26.07,0.35 20.67,0.24 15.26,0.36C12.55,0.43 9.84,0.57 7.14,0.79C4.21,0.91 1.07,2.76 0.18,5.84C-0.03,6.6 -0.07,7.44 0.15,8.24C0.37,9.04 0.88,9.75 1.5,10.24C2.65,11.14 4.15,11.75 5.69,11.56C6.45,11.46 7.17,11.17 7.77,10.74C7.99,10.58 8.19,10.41 8.39,10.24C9.09,9.85 9.57,9.1 9.57,8.24C9.57,6.97 8.54,5.93 7.26,5.93C5.98,5.93 4.95,6.96 4.95,8.24C4.95,9.18 5.51,9.99 6.32,10.34C6.07,10.41 5.82,10.47 5.57,10.48C4.4,10.54 3.24,10.01 2.33,9.21C1.48,8.48 1.28,7.35 1.66,6.29C2.03,5.24 2.86,4.31 3.86,3.73C4.88,3.12 5.99,2.86 7.24,2.86C9.9,2.8 12.57,2.82 15.24,2.91C20.58,3.07 25.93,3.46 31.31,3.79C33.2,3.89 35.03,4.05 36.78,4.38C36.19,4.89 35.65,5.45 35.13,6.05C34.09,7.29 33.17,8.73 32.68,10.64C32.45,11.59 32.38,12.7 32.64,13.82C32.89,14.94 33.47,15.99 34.17,16.77C34.88,17.56 35.68,18.1 36.45,18.52C37.23,18.95 38.13,19.29 38.99,19.47C40.74,19.85 42.51,19.77 44.21,19.27C45.89,18.77 47.59,17.75 48.73,16.09C49.29,15.26 49.67,14.3 49.82,13.33C49.98,12.36 49.92,11.42 49.74,10.56C49.56,9.68 49.3,8.97 48.97,8.2C48.64,7.45 48.22,6.72 47.72,6.06C47.42,5.66 47.09,5.29 46.75,4.94C47.18,4.82 47.62,4.71 48.06,4.61C50.47,4.08 53.01,3.96 55.58,4C60.21,4.13 64.91,4.95 69.6,6.1C68.1,7.13 66.64,8.15 65.16,9.06C64.29,9.6 63.4,10.11 62.52,10.54C61.8,10.93 61.06,11.2 60.26,11.23C58.68,11.32 56.88,10.53 55.33,9.27C53.75,8.03 52.39,6.39 51.15,4.61C51.59,6.75 52.51,8.82 53.91,10.65C54.61,11.57 55.47,12.4 56.5,13.09C57.52,13.79 58.77,14.29 60.11,14.43C61.45,14.58 62.85,14.35 64.07,13.85C64.34,13.73 64.6,13.6 64.86,13.47C64.9,13.55 64.94,13.63 64.98,13.71C64.72,15.05 64.73,16.48 65.24,17.87C65.35,18.15 65.48,18.42 65.62,18.68C65.56,19.1 65.48,19.5 65.38,19.89C64.8,21.97 63.74,23.62 62.46,24.99C61.82,25.67 61.1,26.28 60.3,26.79C59.5,27.3 58.63,27.73 57.67,28.03C55.77,28.62 53.45,28.63 51.21,27.41C50.18,26.84 49.31,25.97 48.75,24.98C48.18,24 47.98,22.88 48.25,22.03C48.5,21.17 49.26,20.55 50.19,20.17C50.69,19.97 51.05,19.86 51.49,19.86C51.92,19.84 52.35,19.92 52.75,20.05C53.56,20.31 54.23,20.8 54.63,21.31C55.04,21.83 55.15,22.36 55.07,22.82C54.98,23.28 54.74,23.65 54.57,23.9C54.4,24.16 54.3,24.32 54.36,24.4C54.41,24.47 54.6,24.45 54.92,24.3C55.23,24.14 55.69,23.83 56.02,23.16C56.18,22.83 56.28,22.4 56.25,21.94C56.22,21.48 56.08,21 55.83,20.56C55.33,19.69 54.49,18.92 53.38,18.45C52.83,18.21 52.21,18.05 51.53,18.02C51.19,18 50.84,18.02 50.49,18.09C50.12,18.16 49.83,18.26 49.51,18.37C48.88,18.6 48.23,18.93 47.65,19.44C47.35,19.68 47.1,20 46.86,20.32C46.64,20.66 46.44,21.03 46.33,21.43C46.08,22.22 46.05,23.06 46.21,23.84C46.36,24.62 46.66,25.35 47.06,26.01C47.86,27.33 49.04,28.39 50.44,29.04C51.83,29.68 53.26,29.95 54.56,29.94C55.87,29.94 57.07,29.65 58.12,29.24C59.18,28.82 60.1,28.27 60.92,27.64C61.74,27.01 62.46,26.31 63.08,25.53C64.32,23.98 65.3,22.18 65.76,20C65.82,19.71 65.87,19.42 65.9,19.12C66.21,19.59 66.57,20.03 66.97,20.42C67.71,21.13 68.57,21.69 69.46,22.14C70.35,22.59 71.26,22.98 72.2,23.28C73.14,23.58 74.1,23.74 75.06,23.77C76.02,23.8 76.98,23.74 77.93,23.58C78.88,23.43 79.81,23.19 80.71,22.79L80.71,22.54C79.77,22.22 78.86,22.01 77.97,21.81C77.08,21.6 76.2,21.44 75.34,21.26C74.48,21.09 73.62,20.96 72.77,20.84C71.91,20.73 71.06,20.57 70.27,20.28C69.48,19.99 68.72,19.62 68.06,19.13C67.4,18.65 66.81,18.06 66.41,17.34C65.99,16.63 65.73,15.8 65.62,14.92C65.55,14.33 65.56,13.73 65.6,13.12C66.11,12.86 66.62,12.58 67.11,12.3C69.05,11.21 70.86,10.02 72.65,8.9C76.2,6.66 79.75,4.68 83.4,4.49C86.92,4.24 90.51,6.04 92.84,8.88C94.01,10.29 94.85,11.96 95.25,13.69C95.65,15.41 95.58,17.32 95.01,18.93C94.44,20.55 93.33,21.81 91.79,22.59C90.26,23.36 88.46,23.53 86.82,22.93C85.18,22.34 83.69,21.11 82.91,19.5C82.14,17.92 82.06,15.88 83.02,14.42C83.92,13.02 86.17,12.24 87.74,13.21C88.5,13.66 88.97,14.62 89.02,15.61C89.08,16.59 88.69,17.69 87.74,18.24C88.79,17.89 89.46,16.76 89.57,15.63C89.7,14.5 89.33,13.22 88.34,12.4C87.38,11.6 86.04,11.32 84.83,11.52C83.61,11.72 82.44,12.32 81.58,13.32C80.75,14.3 80.27,15.54 80.15,16.78C80.02,18.03 80.2,19.28 80.63,20.46C81.52,22.8 83.36,24.73 85.69,25.74C86.11,25.93 86.54,26.07 86.98,26.19C86.96,26.26 86.93,26.33 86.88,26.38C86.77,26.49 86.6,26.49 86.44,26.49C84.35,26.45 82.25,26.37 80.16,26.37C78.94,26.33 77.7,26.31 76.46,26.44C75.23,26.58 73.97,26.85 72.81,27.43C71.65,28.01 70.6,28.83 69.78,29.86C68.95,30.9 68.37,32.14 68.1,33.47C67.83,34.79 67.87,36.22 68.34,37.55C69.33,40.42 72.76,42.03 75.63,41.97C77.06,41.94 78.5,41.52 79.61,40.62C80.72,39.72 81.45,38.31 81.37,36.89C81.34,36.36 81.2,35.83 80.88,35.41C80.56,34.99 80.04,34.7 79.52,34.74C79.42,34.74 79.33,34.76 79.25,34.85C78.84,35.32 79.36,36.24 79.61,36.65C79.87,37.08 80.16,37.53 80.17,38.03L80.17,38.06C78.8,40.89 74.52,40.57 72.12,39.07C69.59,37.49 69.3,34.38 70.4,31.78C71.46,29.27 73.87,27.51 76.54,27.08C77.71,26.88 78.92,26.88 80.12,26.98C83.44,27.26 86.56,28.22 89.9,27.62C91.66,27.3 93.4,26.68 94.91,25.7C93.93,27.2 93.31,28.95 92.99,30.71C92.38,34.06 93.34,37.18 93.63,40.49C93.73,41.69 93.73,42.9 93.53,44.07C93.1,46.74 91.34,49.15 88.83,50.21C86.23,51.31 83.12,51.02 81.54,48.49C80.04,46.09 79.73,41.81 82.55,40.44L82.58,40.44C83.08,40.44 83.53,40.73 83.96,41C84.37,41.25 85.29,41.77 85.76,41.36C85.85,41.28 85.88,41.19 85.87,41.09C85.91,40.56 85.62,40.05 85.2,39.73C84.78,39.41 84.25,39.27 83.72,39.24C82.29,39.16 80.89,39.89 79.99,41C79.09,42.11 78.67,43.55 78.64,44.98C78.58,47.85 80.19,51.28 83.06,52.27C84.39,52.74 85.82,52.79 87.14,52.51C88.46,52.24 89.71,51.66 90.75,50.83C91.78,50.01 92.61,48.96 93.18,47.8C93.76,46.64 94.03,45.38 94.17,44.15C94.3,42.91 94.28,41.68 94.24,40.45C94.24,38.36 94.16,36.26 94.12,34.17C94.12,34.02 94.12,33.84 94.23,33.73C94.28,33.68 94.35,33.65 94.42,33.63C94.54,34.07 94.68,34.51 94.87,34.92C95.88,37.25 97.81,39.09 100.15,39.98C101.33,40.42 102.58,40.59 103.83,40.46C105.07,40.33 106.31,39.86 107.29,39.02C108.29,38.16 108.89,36.99 109.09,35.77C109.29,34.56 109.02,33.22 108.21,32.26C107.38,31.27 106.11,30.9 104.98,31.03C103.85,31.14 102.72,31.81 102.37,32.86C102.92,31.91 104.02,31.52 105,31.58C105.99,31.63 106.95,32.1 107.4,32.86C108.36,34.43 107.59,36.68 106.19,37.58C104.74,38.54 102.7,38.46 101.11,37.69C99.5,36.92 98.26,35.42 97.68,33.78C97.08,32.14 97.24,30.35 98.02,28.81C98.81,27.27 100.06,26.15 101.68,25.59C103.29,25.02 105.2,24.95 106.92,25.35C108.66,25.75 110.32,26.59 111.73,27.76C114.56,30.09 116.37,33.68 116.12,37.2C115.93,40.84 113.95,44.4 111.71,47.95C110.6,49.74 109.41,51.55 108.31,53.49C108.03,53.99 107.76,54.49 107.49,55C106.88,55.04 106.28,55.04 105.69,54.98C104.82,54.88 103.99,54.62 103.27,54.19C102.55,53.79 101.96,53.2 101.48,52.54C100.99,51.88 100.62,51.13 100.33,50.33C100.04,49.53 99.88,48.68 99.77,47.83C99.65,46.97 99.52,46.12 99.35,45.26C99.18,44.4 99.01,43.52 98.8,42.63C98.6,41.74 98.39,40.83 98.07,39.9L97.82,39.9C97.42,40.79 97.18,41.73 97.03,42.67C96.87,43.62 96.81,44.58 96.84,45.54C96.87,46.5 97.03,47.47 97.33,48.4C97.64,49.33 98.02,50.25 98.47,51.14C98.92,52.03 99.48,52.88 100.19,53.63C100.58,54.03 101.02,54.39 101.49,54.7C101.19,54.74 100.9,54.78 100.61,54.84C98.43,55.31 96.63,56.28 95.08,57.52C94.3,58.14 93.6,58.86 92.97,59.68C92.34,60.5 91.79,61.42 91.37,62.48C90.95,63.54 90.68,64.73 90.67,66.05C90.67,67.36 90.93,68.78 91.57,70.17C92.22,71.57 93.29,72.75 94.6,73.55C95.26,73.95 95.99,74.25 96.77,74.4C97.55,74.55 98.39,74.53 99.18,74.28C99.58,74.16 99.94,73.96 100.29,73.75C100.62,73.52 100.93,73.26 101.17,72.96C101.68,72.38 102.01,71.73 102.24,71.1C102.35,70.78 102.44,70.49 102.52,70.12C102.58,69.77 102.61,69.42 102.59,69.08C102.56,68.4 102.4,67.78 102.16,67.23C101.69,66.13 100.92,65.28 100.05,64.78C99.61,64.53 99.13,64.39 98.67,64.36C98.21,64.33 97.78,64.43 97.45,64.59C96.78,64.92 96.46,65.38 96.31,65.69C96.15,66.01 96.14,66.2 96.21,66.25C96.29,66.3 96.45,66.21 96.71,66.04C96.96,65.87 97.33,65.63 97.79,65.54C98.24,65.46 98.77,65.57 99.3,65.98C99.81,66.39 100.3,67.06 100.56,67.86C100.69,68.26 100.77,68.69 100.75,69.12C100.75,69.56 100.64,69.92 100.44,70.42C100.06,71.34 99.44,72.1 98.58,72.36C97.73,72.63 96.61,72.42 95.63,71.86C94.64,71.3 93.77,70.43 93.2,69.4C91.98,67.16 91.99,64.84 92.58,62.94C92.87,61.98 93.3,61.11 93.82,60.31C94.33,59.51 94.93,58.79 95.62,58.15C96.99,56.87 98.64,55.81 100.72,55.23C101.11,55.13 101.51,55.05 101.93,54.99C102.19,55.14 102.46,55.27 102.74,55.37C104.13,55.88 105.56,55.89 106.9,55.63C106.98,55.67 107.06,55.71 107.14,55.75C107.01,56.01 106.88,56.27 106.76,56.54C106.25,57.76 106.02,59.16 106.18,60.5C106.31,61.85 106.81,63.1 107.52,64.11C108.21,65.14 109.04,66 109.96,66.7C111.8,68.09 113.86,69.02 116,69.46C114.21,68.22 112.58,66.86 111.34,65.28C110.08,63.73 109.29,61.93 109.38,60.35C109.41,59.55 109.68,58.81 110.07,58.09C110.51,57.21 111.02,56.32 111.55,55.45C112.46,53.97 113.48,52.51 114.51,51.01C115.65,55.7 116.48,60.4 116.61,65.03C116.65,67.6 116.53,70.15 116,72.55C115.9,72.99 115.79,73.43 115.67,73.86C115.32,73.52 114.95,73.19 114.55,72.89C113.89,72.39 113.16,71.97 112.41,71.64C111.64,71.31 110.93,71.05 110.05,70.87C109.19,70.7 108.25,70.64 107.28,70.8C106.32,70.95 105.35,71.33 104.52,71.89C102.86,73.03 101.84,74.72 101.34,76.41C100.84,78.11 100.76,79.88 101.14,81.63C101.32,82.49 101.66,83.39 102.09,84.17C102.51,84.94 103.05,85.74 103.84,86.45C104.62,87.16 105.67,87.74 106.79,87.98C107.91,88.24 109.02,88.17 109.97,87.94C111.88,87.45 113.33,86.53 114.56,85.49C115.16,84.97 115.71,84.43 116.23,83.84C116.56,85.59 116.72,87.42 116.82,89.31C117.16,94.69 117.54,100.04 117.7,105.38C117.79,108.05 117.82,110.72 117.75,113.38C117.75,114.63 117.49,115.75 116.88,116.76C116.29,117.76 115.37,118.59 114.32,118.96C113.27,119.34 112.13,119.14 111.41,118.29C110.61,117.39 110.08,116.22 110.14,115.05C110.16,114.8 110.21,114.55 110.28,114.3C110.64,115.11 111.44,115.67 112.38,115.67C113.65,115.67 114.69,114.64 114.69,113.36C114.69,112.08 113.66,111.05 112.38,111.05C111.52,111.05 110.77,111.53 110.38,112.23C110.21,112.43 110.04,112.63 109.88,112.85C109.46,113.46 109.16,114.18 109.06,114.93C108.88,116.47 109.48,117.96 110.38,119.12C110.87,119.74 111.57,120.25 112.38,120.47C113.18,120.7 114.02,120.66 114.78,120.44C117.85,119.55 119.7,116.41 119.81,113.47C120.04,110.76 120.18,108.05 120.24,105.35C120.37,99.93 120.24,94.53 120.19,89.17C120.17,86.46 120.04,83.6 119.34,80.76L119.32,80.73ZM45.05,13.49C44.22,14.62 41.93,15.11 40.21,14.55C39.77,14.41 39.4,14.26 39.02,14.02C38.63,13.78 38.32,13.52 38.14,13.29C37.81,12.84 37.76,12.62 37.9,11.88C38.23,10.42 39.89,8.36 41.55,7.21C41.73,7.07 41.97,6.93 42.23,6.78C42.34,6.71 42.47,6.65 42.58,6.59C43.32,7.12 43.96,7.73 44.43,8.44C45.01,9.26 45.38,10.34 45.54,11.31C45.67,12.25 45.47,12.95 45.05,13.49ZM65.01,13.65C64.98,13.59 64.94,13.53 64.91,13.47C64.96,13.44 65.02,13.42 65.07,13.39C65.05,13.48 65.03,13.56 65.01,13.65ZM106.94,55.58C107.03,55.56 107.11,55.54 107.2,55.52C107.17,55.57 107.15,55.63 107.12,55.68C107.06,55.65 107,55.61 106.94,55.58ZM113.38,79.05C112.23,80.71 110.17,82.37 108.71,82.7C107.97,82.84 107.75,82.79 107.3,82.46C107.07,82.28 106.81,81.98 106.57,81.58C106.33,81.2 106.17,80.83 106.04,80.39C105.48,78.67 105.98,76.37 107.1,75.55C107.64,75.13 108.34,74.93 109.28,75.06C110.25,75.22 111.33,75.59 112.15,76.17C112.86,76.64 113.47,77.28 114,78.02C113.94,78.14 113.88,78.26 113.81,78.37C113.66,78.63 113.52,78.87 113.38,79.05Z" style="fill:rgb(122,91,55);fill-rule:nonzero;"/>
            <path d="M100.25,20.35C100.37,20.53 100.44,20.66 100.49,20.66C100.99,20.69 101.56,20.17 102.03,19.93C103.1,19.39 104.28,18.87 105.43,18.57C107.03,18.15 108.86,17.97 110.6,18.12C112.07,18.25 112.97,16.43 111.92,15.39C111.84,15.31 111.75,15.23 111.66,15.17C111.27,14.87 111.01,14.45 110.97,13.96C110.9,13.14 110.32,12.04 109.48,11.54C109.31,11.44 109.16,11.29 109.06,11.12C108.56,10.28 107.46,9.69 106.64,9.62C106.15,9.58 105.73,9.32 105.43,8.93C105.36,8.84 105.29,8.76 105.21,8.67C104.18,7.62 102.35,8.52 102.48,9.99C102.63,11.73 102.46,13.56 102.03,15.16C101.73,16.31 101.2,17.49 100.67,18.56C100.43,19.03 99.92,19.61 99.94,20.1C99.94,20.15 100.06,20.22 100.25,20.34L100.25,20.35Z" style="fill:rgb(122,91,55);fill-rule:nonzero;"/>
            <path d="M118.45,2.15L111.98,2.15L110.3,10.3L118.45,8.62L118.45,2.15Z" style="fill:rgb(122,91,55);fill-rule:nonzero;"/>
        </g>
    </g>
</svg>
