<?xml version="1.0" encoding="UTF-8"?><svg id="_レイヤー_2" xmlns="http://www.w3.org/2000/svg" viewBox="0 0 114.36 94.76"><defs><style>.cls-1{stroke-miterlimit:10;stroke-width:.99px;}.cls-1,.cls-2{fill:none;stroke:#9b7863;}.cls-2{stroke-linecap:round;stroke-linejoin:round;}</style></defs><g id="_デザイン"><g><g><path class="cls-1" d="m61.37,86.87c-4.03,5.91-13.78,11.13-27.44,3.81-2.97-1.59-5.51-3.17-7.66-4.73-13.86-10.05-11.73-19.25-4.36-23.73,1.44-.87,4.52-.05,8.19,1.42,4.2,1.68,9.15,4.22,13.25,6.02,1.38.6,2.81,1.22,4.23,1.84,1.27.55,2.53,1.1,3.75,1.62,5.02,2.17,9.38,4.07,10.59,4.84,2.25,1.42,1.93,5.3-.54,8.92Z"/><path class="cls-1" d="m50.45,67.93c-.42.9-1.43,2.12-2.87,3.55-1.42-.62-2.84-1.23-4.23-1.84-4.09-1.8-9.05-4.33-13.25-6.02-3.67-1.47-6.76-2.3-8.19-1.42-7.37,4.48-9.49,13.68,4.36,23.73-5.92,2.69-20.79,8.12-24.17,3.68-1.63-2.14-4.94-12.16,8.16-25.74,5.03-5.21,11.96-6.32,18.66-5.58,9.91,1.08,19.31,6.19,21.32,8.06.17.16.29.3.35.41.15.27.09.67-.15,1.17Z"/><path class="cls-1" d="m99.67,87.92c-11.23,4.82-18.48-2.29-18.48-2.29,0,0-7.2,4.23-15.57,2.62-1.51-.29-2.93-.77-4.24-1.39,2.47-3.62,2.79-7.51.54-8.92-1.21-.77-5.57-2.66-10.59-4.84-1.22-.53-2.48-1.07-3.75-1.62,1.44-1.42,2.45-2.65,2.87-3.55.24-.5.3-.9.15-1.17-.06-.11-.18-.25-.35-.41-2.01-1.86-11.41-6.97-21.32-8.06-1.6-8.91-1.18-18.34,6.54-26.05,12.06-12.03,29.94-8.45,34.51-12.01,5.64-4.4,6.93-15.91,6.93-15.91,0,0,2.73-4.99,8.81-3.57,6.09,1.41,7.35,6.7,7.35,6.7,0,0-2.9,15.38-1.18,17.61,4.46,5.82,14.34,8.28,19.79,22.72,4.22,11.16,3.4,33.53-12.01,40.14Z"/><path class="cls-1" d="m51.33,73.11c-.24-1.18-.57-2.97-.88-5.17"/><path class="cls-1" d="m50.24,66.35c-.76-6.31-1.12-15.18,1.14-22.99,4.03-13.95,16.73-11.58,21.55-17.35"/><path class="cls-1" d="m89.32,28.84c-.35,7.3,4.31,17.61,2.17,29.13-2.33,12.55-9.99,21.9-9.99,21.9"/></g><path class="cls-2" d="m93.13,60.45s-1.62,14.14-11.64,21.91"/><path class="cls-2" d="m19.31,66.35s-3.59,6.96,3.85,13.52c7.43,6.56,13.33,9.01,13.33,9.01"/><path class="cls-2" d="m2.89,79.87s-2.63,8.29,1.31,9.01c3.94.72,14.25-2.38,14.25-2.38"/></g></g></svg>