<svg width="496" height="133" viewBox="0 0 496 133" fill="none" xmlns="http://www.w3.org/2000/svg">
<path d="M57 52.36C57 56.6533 56.32 60.56 54.96 64.08C53.6 67.6 51.68 70.6133 49.2 73.12C46.72 75.6267 43.7333 77.5733 40.24 78.96C36.7733 80.32 32.9333 81 28.72 81H7.32V23.68H28.72C32.9333 23.68 36.7733 24.3733 40.24 25.76C43.7333 27.12 46.72 29.0667 49.2 31.6C51.68 34.1067 53.6 37.12 54.96 40.64C56.32 44.16 57 48.0667 57 52.36ZM49.04 52.36C49.04 48.84 48.56 45.6933 47.6 42.92C46.64 40.1467 45.28 37.8 43.52 35.88C41.76 33.96 39.6267 32.4933 37.12 31.48C34.6133 30.4667 31.8133 29.96 28.72 29.96H15.08V74.72H28.72C31.8133 74.72 34.6133 74.2133 37.12 73.2C39.6267 72.1867 41.76 70.7333 43.52 68.84C45.28 66.92 46.64 64.5733 47.6 61.8C48.56 59.0267 49.04 55.88 49.04 52.36ZM119.139 81H111.379V23.68H119.139V81ZM223.601 23.68L200.241 81H193.281L169.921 23.68H176.121C176.815 23.68 177.375 23.8533 177.801 24.2C178.228 24.5467 178.548 24.9867 178.761 25.52L194.921 65.96C195.268 66.8667 195.601 67.8533 195.921 68.92C196.268 69.9867 196.575 71.1067 196.841 72.28C197.108 71.1067 197.388 69.9867 197.681 68.92C197.975 67.8533 198.295 66.8667 198.641 65.96L214.761 25.52C214.921 25.0667 215.228 24.6533 215.681 24.28C216.161 23.88 216.735 23.68 217.401 23.68H223.601ZM282.102 81H274.342V23.68H282.102V81ZM386.404 23.68V81H382.524C381.91 81 381.39 80.8933 380.964 80.68C380.564 80.4667 380.164 80.1067 379.764 79.6L346.604 36.4C346.657 37.0667 346.697 37.72 346.724 38.36C346.75 39 346.764 39.6 346.764 40.16V81H339.964V23.68H343.964C344.31 23.68 344.604 23.7067 344.844 23.76C345.084 23.7867 345.297 23.8533 345.484 23.96C345.67 24.04 345.857 24.1733 346.044 24.36C346.23 24.52 346.43 24.7333 346.644 25L379.804 68.16C379.75 67.4667 379.697 66.8 379.644 66.16C379.617 65.4933 379.604 64.8667 379.604 64.28V23.68H386.404ZM490.818 53.44V75.44C487.938 77.52 484.858 79.08 481.578 80.12C478.324 81.1333 474.751 81.64 470.858 81.64C466.244 81.64 462.084 80.9333 458.378 79.52C454.671 78.08 451.498 76.08 448.858 73.52C446.244 70.9333 444.231 67.84 442.817 64.24C441.404 60.64 440.698 56.68 440.698 52.36C440.698 47.9867 441.378 44 442.738 40.4C444.124 36.8 446.084 33.72 448.618 31.16C451.151 28.5733 454.231 26.5733 457.858 25.16C461.484 23.7467 465.538 23.04 470.018 23.04C472.284 23.04 474.391 23.2133 476.338 23.56C478.284 23.88 480.084 24.36 481.738 25C483.391 25.6133 484.924 26.3733 486.338 27.28C487.751 28.16 489.071 29.16 490.298 30.28L488.098 33.8C487.751 34.3333 487.298 34.68 486.738 34.84C486.204 34.9733 485.604 34.84 484.938 34.44C484.298 34.0667 483.564 33.6133 482.738 33.08C481.911 32.5467 480.898 32.04 479.698 31.56C478.524 31.0533 477.124 30.6267 475.498 30.28C473.898 29.9333 471.991 29.76 469.778 29.76C466.551 29.76 463.631 30.2933 461.018 31.36C458.404 32.4 456.178 33.9067 454.338 35.88C452.498 37.8267 451.084 40.2 450.098 43C449.111 45.7733 448.618 48.8933 448.618 52.36C448.618 55.96 449.124 59.1867 450.138 62.04C451.178 64.8667 452.644 67.28 454.538 69.28C456.458 71.2533 458.778 72.76 461.498 73.8C464.218 74.84 467.271 75.36 470.658 75.36C473.324 75.36 475.684 75.0667 477.738 74.48C479.818 73.8667 481.844 73.0267 483.818 71.96V59.36H474.898C474.391 59.36 473.978 59.2133 473.658 58.92C473.364 58.6267 473.218 58.2667 473.218 57.84V53.44H490.818Z" fill="#408F95"/>
<path d="M180.98 108.42C180.86 108.633 180.673 108.86 180.42 109.1C180.167 109.327 179.94 109.487 179.74 109.58C179.54 109.487 179.313 109.327 179.06 109.1C178.807 108.86 178.613 108.633 178.48 108.42C178.613 108.193 178.807 107.96 179.06 107.72C179.313 107.48 179.54 107.307 179.74 107.2C179.94 107.307 180.167 107.48 180.42 107.72C180.687 107.96 180.873 108.193 180.98 108.42ZM178.9 111.9C179.127 111.78 179.373 111.693 179.64 111.64C179.92 111.587 180.2 111.56 180.48 111.56V121.84C180.293 121.947 180.047 122.02 179.74 122.06C179.447 122.113 179.167 122.14 178.9 122.14V111.9ZM191.632 115.76C191.632 114.627 191.398 113.8 190.932 113.28C190.465 112.747 189.805 112.48 188.952 112.48C188.645 112.48 188.338 112.54 188.032 112.66C187.738 112.767 187.452 112.913 187.172 113.1C186.905 113.287 186.652 113.507 186.412 113.76C186.172 114 185.958 114.253 185.772 114.52V121.84C185.585 121.947 185.338 122.02 185.032 122.06C184.738 122.113 184.458 122.14 184.192 122.14V111.9C184.632 111.673 185.125 111.56 185.672 111.56V113.54C185.845 113.313 186.065 113.073 186.332 112.82C186.612 112.553 186.918 112.313 187.252 112.1C187.598 111.887 187.972 111.713 188.372 111.58C188.785 111.433 189.225 111.36 189.692 111.36C190.772 111.36 191.625 111.687 192.252 112.34C192.892 112.993 193.212 113.927 193.212 115.14V121.84C193.025 121.947 192.778 122.02 192.472 122.06C192.178 122.113 191.898 122.14 191.632 122.14V115.76ZM195.448 112.38C195.554 112.233 195.721 112.1 195.948 111.98C196.188 111.847 196.448 111.78 196.728 111.78H197.368V108.9C197.581 108.727 197.828 108.6 198.108 108.52C198.401 108.427 198.681 108.38 198.948 108.38V111.78H202.868C202.854 112.007 202.788 112.2 202.668 112.36C202.561 112.507 202.421 112.58 202.248 112.58H198.948V119.14C198.948 119.567 198.994 119.913 199.088 120.18C199.194 120.433 199.334 120.633 199.508 120.78C199.681 120.927 199.881 121.027 200.108 121.08C200.334 121.133 200.568 121.16 200.808 121.16C201.248 121.16 201.614 121.073 201.908 120.9C202.201 120.727 202.441 120.547 202.628 120.36C202.814 120.413 202.934 120.527 202.988 120.7C202.921 120.807 202.814 120.947 202.668 121.12C202.521 121.293 202.328 121.467 202.088 121.64C201.848 121.8 201.561 121.94 201.228 122.06C200.894 122.18 200.521 122.24 200.108 122.24C199.734 122.24 199.381 122.193 199.048 122.1C198.714 122.007 198.421 121.853 198.168 121.64C197.928 121.427 197.734 121.14 197.588 120.78C197.441 120.42 197.368 119.973 197.368 119.44V112.58H195.448V112.38ZM206.128 116.42C206.128 117.26 206.228 117.993 206.428 118.62C206.641 119.247 206.915 119.773 207.248 120.2C207.595 120.613 207.988 120.927 208.428 121.14C208.881 121.353 209.355 121.46 209.848 121.46C210.915 121.46 211.728 121.107 212.288 120.4C212.848 119.68 213.128 118.6 213.128 117.16C213.128 116.467 213.048 115.82 212.888 115.22C212.728 114.62 212.488 114.1 212.168 113.66C211.861 113.22 211.481 112.873 211.028 112.62C210.575 112.367 210.055 112.24 209.468 112.24C209.041 112.24 208.628 112.32 208.228 112.48C207.828 112.64 207.475 112.893 207.168 113.24C206.861 113.573 206.608 114.007 206.408 114.54C206.221 115.06 206.128 115.687 206.128 116.42ZM204.448 117.04C204.448 116.227 204.595 115.473 204.888 114.78C205.181 114.073 205.575 113.473 206.068 112.98C206.575 112.473 207.161 112.08 207.828 111.8C208.508 111.507 209.228 111.36 209.988 111.36C210.815 111.36 211.528 111.5 212.128 111.78C212.741 112.06 213.241 112.433 213.628 112.9C214.028 113.367 214.321 113.913 214.508 114.54C214.708 115.167 214.808 115.827 214.808 116.52C214.808 117.333 214.681 118.093 214.428 118.8C214.175 119.507 213.808 120.127 213.328 120.66C212.861 121.18 212.288 121.593 211.608 121.9C210.928 122.207 210.155 122.36 209.288 122.36C208.648 122.36 208.035 122.24 207.448 122C206.861 121.76 206.341 121.413 205.888 120.96C205.448 120.507 205.095 119.953 204.828 119.3C204.575 118.633 204.448 117.88 204.448 117.04ZM221.62 112.38C221.726 112.233 221.893 112.1 222.12 111.98C222.36 111.847 222.62 111.78 222.9 111.78H223.54V108.9C223.753 108.727 224 108.6 224.28 108.52C224.573 108.427 224.853 108.38 225.12 108.38V111.78H229.04C229.026 112.007 228.96 112.2 228.84 112.36C228.733 112.507 228.593 112.58 228.42 112.58H225.12V119.14C225.12 119.567 225.166 119.913 225.26 120.18C225.366 120.433 225.506 120.633 225.68 120.78C225.853 120.927 226.053 121.027 226.28 121.08C226.506 121.133 226.74 121.16 226.98 121.16C227.42 121.16 227.786 121.073 228.08 120.9C228.373 120.727 228.613 120.547 228.8 120.36C228.986 120.413 229.106 120.527 229.16 120.7C229.093 120.807 228.986 120.947 228.84 121.12C228.693 121.293 228.5 121.467 228.26 121.64C228.02 121.8 227.733 121.94 227.4 122.06C227.066 122.18 226.693 122.24 226.28 122.24C225.906 122.24 225.553 122.193 225.22 122.1C224.886 122.007 224.593 121.853 224.34 121.64C224.1 121.427 223.906 121.14 223.76 120.78C223.613 120.42 223.54 119.973 223.54 119.44V112.58H221.62V112.38ZM239.055 115.76C239.055 114.627 238.822 113.8 238.355 113.28C237.888 112.747 237.228 112.48 236.375 112.48C236.068 112.48 235.762 112.54 235.455 112.66C235.148 112.767 234.855 112.92 234.575 113.12C234.308 113.307 234.055 113.527 233.815 113.78C233.575 114.02 233.362 114.28 233.175 114.56V121.84C232.988 121.947 232.742 122.02 232.435 122.06C232.142 122.113 231.862 122.14 231.595 122.14V106.9C231.822 106.78 232.068 106.693 232.335 106.64C232.615 106.587 232.895 106.56 233.175 106.56V113.4C233.362 113.173 233.588 112.94 233.855 112.7C234.122 112.46 234.422 112.24 234.755 112.04C235.088 111.84 235.448 111.68 235.835 111.56C236.235 111.427 236.662 111.36 237.115 111.36C238.195 111.36 239.048 111.687 239.675 112.34C240.315 112.993 240.635 113.927 240.635 115.14V121.84C240.448 121.947 240.202 122.02 239.895 122.06C239.602 122.113 239.322 122.14 239.055 122.14V115.76ZM245.169 116.84C245.209 117.56 245.336 118.193 245.549 118.74C245.776 119.273 246.063 119.72 246.409 120.08C246.756 120.44 247.156 120.713 247.609 120.9C248.076 121.073 248.569 121.16 249.089 121.16C249.743 121.16 250.303 121.073 250.769 120.9C251.249 120.727 251.683 120.453 252.069 120.08C252.256 120.12 252.383 120.247 252.449 120.46C252.356 120.607 252.203 120.787 251.989 121C251.789 121.213 251.516 121.42 251.169 121.62C250.836 121.82 250.429 121.987 249.949 122.12C249.483 122.267 248.936 122.34 248.309 122.34C247.643 122.34 247.023 122.22 246.449 121.98C245.876 121.74 245.376 121.393 244.949 120.94C244.523 120.487 244.183 119.927 243.929 119.26C243.689 118.593 243.569 117.84 243.569 117C243.569 116.227 243.703 115.5 243.969 114.82C244.236 114.127 244.596 113.527 245.049 113.02C245.516 112.513 246.056 112.113 246.669 111.82C247.296 111.513 247.963 111.36 248.669 111.36C249.429 111.36 250.056 111.487 250.549 111.74C251.043 111.993 251.429 112.32 251.709 112.72C252.003 113.12 252.203 113.56 252.309 114.04C252.429 114.52 252.489 114.987 252.489 115.44C252.383 115.6 252.236 115.74 252.049 115.86C251.876 115.98 251.683 116.073 251.469 116.14L245.169 116.84ZM248.149 112.26C247.736 112.26 247.349 112.333 246.989 112.48C246.629 112.627 246.316 112.853 246.049 113.16C245.783 113.467 245.563 113.86 245.389 114.34C245.229 114.82 245.143 115.4 245.129 116.08L250.769 115.5C250.783 115.433 250.789 115.367 250.789 115.3C250.789 115.233 250.789 115.173 250.789 115.12C250.789 114.707 250.736 114.327 250.629 113.98C250.523 113.633 250.356 113.333 250.129 113.08C249.916 112.827 249.643 112.627 249.309 112.48C248.989 112.333 248.603 112.26 248.149 112.26ZM261.655 116.42C261.655 117.26 261.755 117.993 261.955 118.62C262.169 119.247 262.442 119.773 262.775 120.2C263.122 120.613 263.515 120.927 263.955 121.14C264.409 121.353 264.882 121.46 265.375 121.46C266.442 121.46 267.255 121.107 267.815 120.4C268.375 119.68 268.655 118.6 268.655 117.16C268.655 116.467 268.575 115.82 268.415 115.22C268.255 114.62 268.015 114.1 267.695 113.66C267.389 113.22 267.009 112.873 266.555 112.62C266.102 112.367 265.582 112.24 264.995 112.24C264.569 112.24 264.155 112.32 263.755 112.48C263.355 112.64 263.002 112.893 262.695 113.24C262.389 113.573 262.135 114.007 261.935 114.54C261.749 115.06 261.655 115.687 261.655 116.42ZM259.975 117.04C259.975 116.227 260.122 115.473 260.415 114.78C260.709 114.073 261.102 113.473 261.595 112.98C262.102 112.473 262.689 112.08 263.355 111.8C264.035 111.507 264.755 111.36 265.515 111.36C266.342 111.36 267.055 111.5 267.655 111.78C268.269 112.06 268.769 112.433 269.155 112.9C269.555 113.367 269.849 113.913 270.035 114.54C270.235 115.167 270.335 115.827 270.335 116.52C270.335 117.333 270.209 118.093 269.955 118.8C269.702 119.507 269.335 120.127 268.855 120.66C268.389 121.18 267.815 121.593 267.135 121.9C266.455 122.207 265.682 122.36 264.815 122.36C264.175 122.36 263.562 122.24 262.975 122C262.389 121.76 261.869 121.413 261.415 120.96C260.975 120.507 260.622 119.953 260.355 119.3C260.102 118.633 259.975 117.88 259.975 117.04ZM281.374 113.72C281.294 113.867 281.134 114.02 280.894 114.18C280.667 114.34 280.381 114.44 280.034 114.48C279.994 114.253 279.914 114.013 279.794 113.76C279.687 113.493 279.527 113.253 279.314 113.04C279.101 112.813 278.834 112.633 278.514 112.5C278.194 112.353 277.807 112.28 277.354 112.28C276.981 112.28 276.601 112.353 276.214 112.5C275.841 112.647 275.501 112.887 275.194 113.22C274.887 113.553 274.634 113.98 274.434 114.5C274.247 115.02 274.154 115.653 274.154 116.4C274.154 117.2 274.261 117.9 274.474 118.5C274.687 119.087 274.974 119.58 275.334 119.98C275.694 120.367 276.107 120.66 276.574 120.86C277.054 121.047 277.554 121.14 278.074 121.14C278.754 121.14 279.327 121.04 279.794 120.84C280.274 120.627 280.681 120.327 281.014 119.94C281.094 119.953 281.174 120 281.254 120.08C281.334 120.16 281.387 120.233 281.414 120.3C281.307 120.487 281.141 120.7 280.914 120.94C280.701 121.167 280.427 121.38 280.094 121.58C279.761 121.78 279.374 121.947 278.934 122.08C278.494 122.227 277.994 122.3 277.434 122.3C276.767 122.3 276.134 122.187 275.534 121.96C274.947 121.733 274.427 121.393 273.974 120.94C273.534 120.487 273.181 119.933 272.914 119.28C272.661 118.627 272.534 117.867 272.534 117C272.534 116.24 272.674 115.527 272.954 114.86C273.234 114.18 273.614 113.587 274.094 113.08C274.587 112.56 275.167 112.153 275.834 111.86C276.501 111.553 277.221 111.4 277.994 111.4C278.634 111.4 279.167 111.493 279.594 111.68C280.021 111.853 280.361 112.067 280.614 112.32C280.881 112.56 281.074 112.813 281.194 113.08C281.314 113.347 281.374 113.56 281.374 113.72ZM284.857 116.84C284.897 117.56 285.023 118.193 285.237 118.74C285.463 119.273 285.75 119.72 286.097 120.08C286.443 120.44 286.843 120.713 287.297 120.9C287.763 121.073 288.257 121.16 288.777 121.16C289.43 121.16 289.99 121.073 290.457 120.9C290.937 120.727 291.37 120.453 291.757 120.08C291.943 120.12 292.07 120.247 292.137 120.46C292.043 120.607 291.89 120.787 291.677 121C291.477 121.213 291.203 121.42 290.857 121.62C290.523 121.82 290.117 121.987 289.637 122.12C289.17 122.267 288.623 122.34 287.997 122.34C287.33 122.34 286.71 122.22 286.137 121.98C285.563 121.74 285.063 121.393 284.637 120.94C284.21 120.487 283.87 119.927 283.617 119.26C283.377 118.593 283.257 117.84 283.257 117C283.257 116.227 283.39 115.5 283.657 114.82C283.923 114.127 284.283 113.527 284.737 113.02C285.203 112.513 285.743 112.113 286.357 111.82C286.983 111.513 287.65 111.36 288.357 111.36C289.117 111.36 289.743 111.487 290.237 111.74C290.73 111.993 291.117 112.32 291.397 112.72C291.69 113.12 291.89 113.56 291.997 114.04C292.117 114.52 292.177 114.987 292.177 115.44C292.07 115.6 291.923 115.74 291.737 115.86C291.563 115.98 291.37 116.073 291.157 116.14L284.857 116.84ZM287.837 112.26C287.423 112.26 287.037 112.333 286.677 112.48C286.317 112.627 286.003 112.853 285.737 113.16C285.47 113.467 285.25 113.86 285.077 114.34C284.917 114.82 284.83 115.4 284.817 116.08L290.457 115.5C290.47 115.433 290.477 115.367 290.477 115.3C290.477 115.233 290.477 115.173 290.477 115.12C290.477 114.707 290.423 114.327 290.317 113.98C290.21 113.633 290.043 113.333 289.817 113.08C289.603 112.827 289.33 112.627 288.997 112.48C288.677 112.333 288.29 112.26 287.837 112.26ZM303.91 121.26C303.87 121.327 303.803 121.407 303.71 121.5C303.63 121.593 303.537 121.687 303.43 121.78C303.323 121.86 303.203 121.933 303.07 122C302.95 122.067 302.837 122.113 302.73 122.14C302.303 122.113 301.943 121.953 301.65 121.66C301.357 121.353 301.197 120.953 301.17 120.46C301.063 120.66 300.903 120.873 300.69 121.1C300.477 121.313 300.217 121.513 299.91 121.7C299.617 121.873 299.277 122.013 298.89 122.12C298.503 122.24 298.083 122.3 297.63 122.3C296.683 122.3 295.93 122.06 295.37 121.58C294.823 121.1 294.55 120.46 294.55 119.66C294.55 118.833 294.863 118.14 295.49 117.58C296.117 117.02 297.19 116.607 298.71 116.34L301.09 115.92V115.14C301.09 114.18 300.863 113.447 300.41 112.94C299.97 112.433 299.31 112.18 298.43 112.18C297.883 112.18 297.417 112.32 297.03 112.6C296.657 112.867 296.47 113.267 296.47 113.8C296.47 114.04 296.55 114.253 296.71 114.44C296.59 114.6 296.397 114.747 296.13 114.88C295.863 115.013 295.59 115.093 295.31 115.12C295.243 115.053 295.163 114.953 295.07 114.82C294.977 114.687 294.93 114.507 294.93 114.28C294.93 113.867 295.05 113.48 295.29 113.12C295.53 112.76 295.843 112.453 296.23 112.2C296.617 111.933 297.063 111.727 297.57 111.58C298.077 111.433 298.603 111.36 299.15 111.36C300.43 111.36 301.337 111.653 301.87 112.24C302.403 112.813 302.67 113.62 302.67 114.66V119.68C302.67 120.227 302.79 120.607 303.03 120.82C303.27 121.02 303.55 121.14 303.87 121.18L303.91 121.26ZM298.27 121.24C298.963 121.24 299.55 121.08 300.03 120.76C300.523 120.44 300.877 120.027 301.09 119.52V116.64L298.41 117.12C297.69 117.253 297.137 117.48 296.75 117.8C296.377 118.12 296.19 118.58 296.19 119.18C296.19 119.847 296.39 120.36 296.79 120.72C297.203 121.067 297.697 121.24 298.27 121.24ZM313.897 115.76C313.897 114.627 313.664 113.8 313.197 113.28C312.731 112.747 312.071 112.48 311.217 112.48C310.911 112.48 310.604 112.54 310.297 112.66C310.004 112.767 309.717 112.913 309.437 113.1C309.171 113.287 308.917 113.507 308.677 113.76C308.437 114 308.224 114.253 308.037 114.52V121.84C307.851 121.947 307.604 122.02 307.297 122.06C307.004 122.113 306.724 122.14 306.457 122.14V111.9C306.897 111.673 307.391 111.56 307.937 111.56V113.54C308.111 113.313 308.331 113.073 308.597 112.82C308.877 112.553 309.184 112.313 309.517 112.1C309.864 111.887 310.237 111.713 310.637 111.58C311.051 111.433 311.491 111.36 311.957 111.36C313.037 111.36 313.891 111.687 314.517 112.34C315.157 112.993 315.477 113.927 315.477 115.14V121.84C315.291 121.947 315.044 122.02 314.737 122.06C314.444 122.113 314.164 122.14 313.897 122.14V115.76Z" fill="#408F95"/>
</svg>
