<?xml version="1.0" encoding="utf-8"?>
<!-- Generator: Adobe Illustrator 27.2.0, SVG Export Plug-In . SVG Version: 6.00 Build 0)  -->
<svg version="1.1" id="_レイヤー_2" xmlns="http://www.w3.org/2000/svg" xmlns:xlink="http://www.w3.org/1999/xlink" x="0px"
	 y="0px" viewBox="0 0 71.2 71.2" style="enable-background:new 0 0 71.2 71.2;" xml:space="preserve">
<style type="text/css">
	.st0{fill:#9B7863;}
	.st1{fill:#FFFFFF;}
</style>
<g id="_トップに戻るボタン">
	<g>
		<circle class="st0" cx="35.6" cy="35.6" r="35.6"/>
		<path class="st1" d="M47.5,50c-0.6,0-1.2-0.2-1.7-0.7l-10-10l-10,10c-0.9,0.9-2.4,0.9-3.3,0c-0.9-0.9-0.9-2.4,0-3.3l11.7-11.7
			c0.9-0.9,2.4-0.9,3.3,0L49.1,46c0.9,0.9,0.9,2.4,0,3.3C48.7,49.8,48.1,50,47.5,50z"/>
		<path class="st1" d="M47.5,36.8c-0.6,0-1.2-0.2-1.7-0.7l-10-10l-10,10c-0.9,0.9-2.4,0.9-3.3,0c-0.9-0.9-0.9-2.4,0-3.3l11.7-11.7
			c0.9-0.9,2.4-0.9,3.3,0l11.7,11.7c0.9,0.9,0.9,2.4,0,3.3C48.7,36.5,48.1,36.8,47.5,36.8z"/>
	</g>
</g>
</svg>
