<?xml version="1.0" encoding="utf-8"?>
<!-- Generator: Adobe Illustrator 27.2.0, SVG Export Plug-In . SVG Version: 6.00 Build 0)  -->
<svg version="1.1" id="_レイヤー_2" xmlns="http://www.w3.org/2000/svg" xmlns:xlink="http://www.w3.org/1999/xlink" x="0px"
	 y="0px" viewBox="0 0 221.2 325.5" style="enable-background:new 0 0 221.2 325.5;" xml:space="preserve">
<style type="text/css">
	.st0{fill:#9B7863;}
	.st1{fill:none;stroke:#9B7863;stroke-width:1.42;stroke-linecap:round;stroke-miterlimit:10;}
	.st2{fill:none;stroke:#9B7863;stroke-width:1.42;stroke-miterlimit:10;}
	.st3{fill:none;stroke:#9B7863;stroke-miterlimit:10;}
	.st4{fill:#F4F4F4;stroke:#9B7863;stroke-width:0.99;stroke-miterlimit:10;}
	.st5{fill:#E9E9E9;stroke:#9B7863;stroke-width:1.42;stroke-linecap:round;stroke-linejoin:round;}
	.st6{fill:#9B7863;stroke:#9B7863;stroke-width:1.42;stroke-miterlimit:10;}
	.st7{fill:#F4F4F4;}
	.st8{fill:#E9E9E9;}
</style>
<g id="_デザイン">
	<g>
		<path class="st0" d="M93.2,145.8c0,26.2-19.5,46.9-43.5,46.9S6.2,172,6.2,145.8c0,0,12.6-5.4,43.7-5.4S93.2,145.8,93.2,145.8
			L93.2,145.8z"/>
		<g>
			<path class="st1" d="M89.6,104.1c0.3,0.2,0.4,0.5,0.4,0.7c0,2.7-18.5,4.9-40.3,4.9s-40.2-2.2-40.2-4.9l0,0c0-0.2,0.1-0.5,0.4-0.7
				"/>
			<path class="st2" d="M55,201.1c-1.2,1.3-1.9,3.4-1.7,27l0.8,51.5c0,0,0.5,23,1,25.5c0.5,2.5,0.2,6.9,5.8,8.8s17.8,5.3,17.9,7
				c0.2,1.7-17.2,4.2-29.1,3.9c-11.8,0.3-29.2-2.1-29-3.9c0.1-1.7,12.3-5.1,17.9-7s5.3-6.3,5.8-8.8c0.5-2.5,1-25.5,1-25.5l0.8-51.4
				c0.2-23.6-0.5-25.7-1.7-27c-1.7-1.9-5.8-3.7-10-5.4c-1.8-0.7-3.8-1.7-5.5-2.6c0,0-0.1,0-0.1-0.1C12.5,185.9,0.7,170,0.7,147.3
				c0-15.9,3.8-30.4,6.9-43.6l0,0c0.1-0.2,0.3-0.5,0.4-0.7c3-2.5,20.8-4.4,41.7-4.4s38.8,1.9,41.8,4.3c0.2,0.2,0.4,0.4,0.4,0.7
				c3.2,13.2,6.7,27.3,6.7,43.1c0,20.8-9.9,36.1-24.1,44.2c0,0,0,0,0,0c-0.1,0-0.1,0.1-0.2,0.1c-0.1,0-0.2,0.1-0.3,0.2
				c-0.4,0.2-1,0.5-1.7,0.9c-0.1,0.1-0.2,0.1-0.3,0.2c-2,1-4.8,2.4-7.1,3.4C60.8,197.5,56.6,199.3,55,201.1L55,201.1z"/>
			<path class="st2" d="M74.1,191.2c-0.4,0.2-1,0.5-1.7,0.9C72.9,191.9,73.5,191.6,74.1,191.2z"/>
		</g>
		<path class="st3" d="M74.6,191C74.6,191,74.6,191,74.6,191"/>
		<path class="st3" d="M74.5,191c0,0-0.1,0.1-0.2,0.1"/>
		<path class="st3" d="M24.8,191.1c0,0,1.8,0.9,4,2"/>
	</g>
	<g>
		<path class="st4" d="M190.1,19.2v12.3c0,0.8-0.6,1.2-1.2,1.4c-0.4,0.1-0.7,0.2-1.1,0.3c-8.5,2.4-17,2.4-25.4,0
			c-0.4-0.1-0.7-0.2-1.1-0.3c-0.6-0.2-1.2-0.6-1.2-1.4V19.2c0-0.8,0.6-1.4,1.2-1.4c0.2,0,0.4,0.1,0.6,0.1c1.1,0.2,2.2,0.4,3.3,0.6
			c2.9,0.4,5.7,0.7,8.6,0.8c1.6,0,3.1,0,4.6,0c0.6,0,1.1-0.1,1.6-0.1c1.7-0.1,3.3-0.3,5-0.5c1-0.1,2-0.3,3.1-0.5v0
			c0.3,0,0.5-0.1,0.8-0.2C189.5,17.8,190.1,18.4,190.1,19.2L190.1,19.2z"/>
		<path class="st2" d="M187.9,18L187.9,18c-1.1,0.2-2.1,0.4-3.2,0.6c-1.7,0.2-3.5,0.4-5.2,0.5c1.7-0.1,3.5-0.3,5.2-0.6
			c1-0.1,2-0.3,3-0.5C187.8,18,187.9,18,187.9,18L187.9,18z"/>
		<path class="st0" d="M188,11.8V18c-0.1,0-0.1,0-0.2,0c-0.9,0.2-1.9,0.4-2.9,0.5c-1.7,0.2-3.3,0.4-5,0.6c-0.6,0-1.1,0.1-1.7,0.1
			c-1.6,0.1-3.1,0.1-4.6,0c-2.9-0.1-5.7-0.3-8.6-0.8c-1-0.2-2-0.3-3.1-0.5v-6.1c0-0.7,0.5-1.2,1.1-1.2c0.6,0.1,1.1,0.1,1.7,0.1
			c6.9,0.6,13.7,0.6,20.5,0c0.6,0,1.1-0.1,1.7-0.1C187.5,10.6,188,11.1,188,11.8L188,11.8z"/>
		<path class="st0" d="M187.9,18L187.9,18c-1.1,0.2-2.1,0.4-3.2,0.6c-1.7,0.2-3.5,0.4-5.2,0.5c1.7-0.1,3.5-0.3,5.2-0.6
			c1-0.1,2-0.3,3-0.5C187.8,18,187.9,18,187.9,18L187.9,18z"/>
		<g>
			<path class="st4" d="M185.6,2.3l-0.4,9.9c-6.8,0.6-13.6,0.6-20.5,0l-0.4-9.9c0-0.6,0.4-1.1,1-1.1c6.4-0.9,12.9-0.9,19.3,0
				C185.2,1.2,185.7,1.7,185.6,2.3L185.6,2.3z"/>
			<path class="st5" d="M167.3,3.6c0,0,4.2,0.7,7.7,0.7s7.7-0.7,7.7-0.7"/>
		</g>
		<path class="st6" d="M220.5,149.8V314c0,6-20.4,10.8-45.5,10.8s-45.5-4.8-45.5-10.8V149.7c0-23,5.9-31.4,14.6-42.1
			c7.3-8.9,14.5-15,16.6-23.3c2.1-8.3,1.6-23,1.6-23V33.2c8.5,2.5,17,2.4,25.4,0v28.1c0,0-0.5,14.8,1.6,23
			c2.1,8.3,9.2,14.3,16.6,23.3C214.6,118.3,220.5,126.8,220.5,149.8L220.5,149.8z"/>
		<path class="st7" d="M219.2,169.7v84.3c-29.6,9.3-59,9.4-88.4,0v-84.4C160.2,175.8,189.6,175.7,219.2,169.7L219.2,169.7z"/>
		<path class="st8" d="M145.7,132.4c-3.1,10.5-5.7,22-7.6,21.8s-2.3-13,0-21.8c4-15.2,12.8-22.1,14.6-22
			C154.5,110.7,149.3,120.3,145.7,132.4L145.7,132.4z"/>
	</g>
</g>
</svg>
